<svg width="196" height="140" viewBox="0 0 196 140" fill="none" xmlns="http://www.w3.org/2000/svg">
<path d="M120.26 66.3823L123.246 71.934C124.001 73.3362 125.88 73.6415 127.039 72.5502L132.76 67.1659C133.308 66.6498 134.059 66.419 134.804 66.5302C142.827 67.7285 157.821 68.98 161.919 65.5098C167.305 60.95 165.676 28.9495 161.681 22.2453C157.686 15.5412 113.083 15.4797 106.379 19.4749C99.6751 23.47 99.3833 56.6766 101.795 60.5183C103.568 63.342 112.791 64.6836 118.26 65.0959C119.103 65.1595 119.859 65.6381 120.26 66.3823Z" fill="#F80066" stroke="#151417" stroke-width="1.5" stroke-linecap="round" stroke-linejoin="round"/>
<path d="M98.8409 80.849C71.1209 80.1731 61.4581 106.018 61.231 115.331C61.004 124.643 130.948 124.388 131.131 116.883C131.314 109.377 125.733 81.5047 98.8409 80.849Z" fill="white" stroke="#151417" stroke-width="1.5" stroke-linecap="round" stroke-linejoin="round"/>
<path d="M102.289 43.1589C97.2008 40.4121 90.3304 42.722 86.8366 45.6362C74.4696 60.1493 84.3239 71.4097 87.0032 74.7258C89.5392 77.8647 108.947 83.1439 112.109 66.3677C115.271 49.5915 107.826 46.148 102.289 43.1589Z" fill="white" stroke="#151417" stroke-width="1.5" stroke-linecap="round" stroke-linejoin="round"/>
<path d="M80.3136 54.1274C82.0226 48.5172 81.5 36.9999 95 36.9999C108.5 37 111.543 44.8052 113.269 54.5967" stroke="#151417" stroke-width="1.5" stroke-linecap="round" stroke-linejoin="round"/>
<path d="M81.1567 61.2869C82.334 63.9374 86.7269 70.5301 93.3668 69.8641" stroke="#151417" stroke-width="1.5" stroke-linecap="round" stroke-linejoin="round"/>
<rect x="78.049" y="52.932" width="4.13851" height="9.10472" rx="2.06925" transform="rotate(1.39684 78.049 52.932)" fill="#151417"/>
<rect x="111.283" y="53.7421" width="4.13851" height="9.10472" rx="2.06925" transform="rotate(1.39684 111.283 53.7421)" fill="#151417"/>
<rect x="98.3721" y="68.3303" width="3.38605" height="7.44932" rx="1.69303" transform="rotate(91.3968 98.3721 68.3303)" fill="#151417"/>
<path d="M142.52 44.6372C140.973 45.6099 128.549 44.6374 124.703 44.6374C120.856 44.6374 122.802 24.3438 132.484 24.6091C142.166 24.8745 144.067 43.6645 142.52 44.6372Z" fill="white" stroke="#151417" stroke-width="1.5" stroke-linecap="round" stroke-linejoin="round"/>
<path d="M133.522 41.1295C122.914 40.8709 119.216 50.762 119.129 54.3261C119.042 57.8902 145.81 57.7926 145.88 54.9201C145.95 52.0476 143.814 41.3805 133.522 41.1295Z" fill="white" stroke="#151417" stroke-width="1.5" stroke-linecap="round" stroke-linejoin="round"/>
<path d="M134.581 29.7033C132.286 28.4643 130.218 27.1215 128.881 28.2369C124.148 33.7912 127.919 38.1007 128.944 39.3699C129.915 40.5711 137.343 42.5916 138.553 36.1711C139.763 29.7506 136.875 30.9422 134.581 29.7033Z" fill="white" stroke="#151417" stroke-width="1.5" stroke-linecap="round" stroke-linejoin="round"/>
<rect x="104.082" y="94.2372" width="9.94708" height="5.75882" rx="0.5" transform="rotate(3.09703 104.082 94.2372)" fill="#FFDE06" stroke="#151417" stroke-width="1.5"/>
</svg>
