<svg width="196" height="140" viewBox="0 0 196 140" fill="none" xmlns="http://www.w3.org/2000/svg">
<g clip-path="url(#clip0)">
<g clip-path="url(#clip1)">
<path d="M42.0935 116.443L41.6007 111.884L65.9635 108.888L66.6401 114.502C65.7361 115.433 61.565 117.725 53.631 118.701C47.2839 119.481 43.2947 117.521 42.0935 116.443Z" fill="#F1D202" stroke="#151417" stroke-width="1.5"/>
<path d="M63.8326 111.547L64.7609 115.849" stroke="black" stroke-width="1.5"/>
<path d="M60.6292 112.443L61.6419 117.135" stroke="black" stroke-width="1.5"/>
<path d="M56.6066 113.147L57.4353 118.125" stroke="black" stroke-width="1.5"/>
<path d="M52.7594 113.527L53.5268 118.6" stroke="black" stroke-width="1.5"/>
<path d="M49.0743 113.709L49.2129 118.713" stroke="black" stroke-width="1.5"/>
<path d="M45.0227 113.519L45.4174 117.813" stroke="black" stroke-width="1.5"/>
<path d="M43.3512 112.979C40.0569 111.824 41.4047 109.839 42.4904 108.991C46.4751 106.821 51.252 105.845 53.1424 105.628C55.1128 105.339 59.8207 105.054 62.8893 106.225C66.725 107.69 66.8563 109.626 64.4273 110.887C62.484 111.895 58.7056 112.694 57.0593 112.968C53.8626 113.453 46.6455 114.135 43.3512 112.979Z" fill="#FFDE06" stroke="#151417" stroke-width="1.5"/>
<path d="M129.354 121.731C130.399 121.383 129.79 89.0879 129.354 72.9839H61.4563C60.7599 72.9839 57.9744 119.76 59.7153 121.731C61.4563 123.703 129.354 121.731 129.354 121.731Z" fill="white" stroke="#151417" stroke-width="1.5" stroke-linecap="round" stroke-linejoin="round"/>
<path d="M132.129 58.1856C131.258 57.3152 125.745 57.17 122.989 57.3151C102.532 57.0249 62.2283 56.8799 59.4428 56.8799C55.9608 56.8799 55.4504 71.3964 56.8313 72.9839C58.2122 74.5715 121.381 76.4185 129.517 73.4192C137.654 70.4198 132.999 59.056 132.129 58.1856Z" fill="white" stroke="#151417" stroke-width="1.5" stroke-linecap="round" stroke-linejoin="round"/>
<path d="M73.8263 38.6595C81.1384 35.5258 86.7385 44.3177 88.6246 49.1054C90.452 48.4092 93.3757 48.0158 95.423 49.5406C97.2882 46.5173 99.0682 43.9105 103.871 40.3865C107.934 36.8918 112.916 37.1076 116.916 43.0119C120.856 48.8288 121.233 52.407 118.252 54.9928C116.467 57.0131 113.532 57.9779 111.257 58.2454L97.7648 56.9397V56.9396C97.7648 55.8735 97.7648 54.8424 97.6786 53.893C97.6169 53.2136 97.511 52.576 97.3295 51.9973C97.0021 50.9534 96.4283 50.1011 95.423 49.5406C93.3757 48.0158 90.452 48.4092 88.6246 49.1054C87.3573 49.8095 86.7117 50.8693 86.4401 51.9973C86.324 52.4792 86.2763 52.9735 86.2775 53.4578C86.2805 54.6431 86.5769 55.7683 86.8836 56.5045C81.0804 57.0848 68.7774 57.8973 65.9919 56.5045C63.6778 55.3474 65.452 50.1905 66.5599 45.7576C67.6694 42.4329 70.7606 39.9734 73.8263 38.6595Z" fill="#00FFFF"/>
<path d="M88.6246 49.1054C86.7385 44.3177 81.1384 35.5258 73.8263 38.6595C70.7606 39.9734 67.6694 42.4329 66.5599 45.7576C65.452 50.1905 63.6778 55.3474 65.9919 56.5045C68.7774 57.8973 81.0804 57.0848 86.8836 56.5045C86.5769 55.7683 86.2805 54.6431 86.2775 53.4578M88.6246 49.1054C90.452 48.4092 93.3757 48.0158 95.423 49.5406M88.6246 49.1054C87.3573 49.8095 86.7117 50.8693 86.4401 51.9973M95.423 49.5406C96.4283 50.1011 97.0021 50.9534 97.3295 51.9973M95.423 49.5406C97.2882 46.5173 99.0682 43.9105 103.871 40.3865C107.934 36.8918 112.916 37.1076 116.916 43.0119C120.856 48.8288 121.233 52.407 118.252 54.9928C116.467 57.0131 113.532 57.9779 111.257 58.2454L97.7648 56.9397C97.7648 55.8736 97.7648 54.8425 97.6786 53.893M97.3295 51.9973C98.4902 50.0177 97.7648 50.5599 101.285 49.1054M97.3295 51.9973C97.511 52.576 97.6169 53.2136 97.6786 53.893M97.6786 53.893C100.029 53.3127 101.391 52.08 103.132 52.7764M86.4401 51.9973C84.5568 50.1628 83.4469 48.3435 81.7059 48.3435M86.4401 51.9973C86.324 52.4792 86.2763 52.9735 86.2775 53.4578M86.2775 53.4578C86.0132 53.4578 84.5551 52.7105 82.8141 53.1458" stroke="#151417" stroke-width="1.5" stroke-linecap="round" stroke-linejoin="round"/>
<path d="M81.8549 58.6869C81.8549 55.5531 88.1693 56.4447 92.0865 56.4446C95.1332 56.4446 102.097 56.4447 102.968 57.3152C103.838 58.1857 102.968 121.731 102.968 122.166C102.968 122.602 83.3816 122.602 82.5111 122.166C82.0253 121.924 83.3684 107.831 83.3325 90.8255C83.3041 77.3617 81.8549 60.4178 81.8549 58.6869Z" fill="#00FFFF" stroke="#151417" stroke-width="1.5" stroke-linecap="round" stroke-linejoin="round"/>
<path d="M111.422 122.368L112.371 117.882L136.457 122.612L135.354 128.158C134.205 128.762 129.528 129.643 121.685 128.102C115.41 126.87 112.228 123.766 111.422 122.368Z" fill="#F1D202" stroke="#151417" stroke-width="1.5"/>
<path d="M133.606 124.476L133.151 128.853" stroke="black" stroke-width="1.5"/>
<path d="M130.283 124.332L129.786 129.106" stroke="black" stroke-width="1.5"/>
<path d="M126.241 123.75L125.48 128.739" stroke="black" stroke-width="1.5"/>
<path d="M122.466 122.914L121.618 127.975" stroke="black" stroke-width="1.5"/>
<path d="M118.907 121.941L117.483 126.74" stroke="black" stroke-width="1.5"/>
<path d="M115.116 120.5L114.155 124.704" stroke="black" stroke-width="1.5"/>
<path d="M113.695 119.467C110.924 117.345 112.822 115.877 114.118 115.409C118.58 114.586 123.423 115.144 125.287 115.526C127.25 115.864 131.813 117.058 134.365 119.125C137.555 121.71 137.078 123.591 134.377 124.034C132.216 124.388 128.377 123.972 126.727 123.72C123.538 123.187 116.467 121.59 113.695 119.467Z" fill="#FFDE06" stroke="#151417" stroke-width="1.5"/>
<path d="M126.881 115.473L128.919 111.365L151.065 121.952L148.614 127.048C147.351 127.347 142.602 127.033 135.39 123.586C129.62 120.827 127.313 117.028 126.881 115.473Z" fill="#F1D202" stroke="#151417" stroke-width="1.5"/>
<path d="M147.84 123.047L146.307 127.172" stroke="black" stroke-width="1.5"/>
<path d="M144.656 122.078L142.984 126.578" stroke="black" stroke-width="1.5"/>
<path d="M140.887 120.506L138.907 125.148" stroke="black" stroke-width="1.5"/>
<path d="M137.441 118.756L135.358 123.445" stroke="black" stroke-width="1.5"/>
<path d="M134.236 116.926L131.66 121.218" stroke="black" stroke-width="1.5"/>
<path d="M130.925 114.586L128.946 118.417" stroke="black" stroke-width="1.5"/>
<path d="M129.806 113.231C127.651 110.484 129.856 109.536 131.227 109.406C135.753 109.722 140.305 111.47 142.015 112.304C143.831 113.121 147.952 115.415 149.908 118.054C152.353 121.352 151.422 123.054 148.696 122.81C146.515 122.614 142.9 121.254 141.366 120.599C138.41 119.287 131.961 115.978 129.806 113.231Z" fill="#FFDE06" stroke="#151417" stroke-width="1.5"/>
</g>
</g>
<defs>
<clipPath id="clip0">
<rect width="196" height="140" fill="white"/>
</clipPath>
<clipPath id="clip1">
<rect width="196" height="196" fill="white" transform="translate(0 -56)"/>
</clipPath>
</defs>
</svg>
