<svg width="196" height="140" viewBox="0 0 196 140" fill="none" xmlns="http://www.w3.org/2000/svg">
<path d="M145.886 70.9591C146.085 70.6861 146.518 70.7173 146.673 71.034C147.201 72.1083 147.862 73.4214 148.257 74.0726L148.898 73.6836L148.257 74.0726C148.553 74.5607 149.098 74.8373 149.558 75.0077C150.052 75.1906 150.627 75.3136 151.175 75.3986C151.399 75.4334 151.592 75.5955 151.683 75.8191C151.771 76.0366 151.735 76.2316 151.611 76.3674L150.463 77.624C150.046 78.0803 149.87 78.7073 149.989 79.3138L150.386 81.3383C150.455 81.6878 150.109 81.9743 149.778 81.842L146.79 80.6459C146.306 80.4521 145.765 80.4603 145.287 80.6686L141.899 82.1455C141.53 82.3063 141.114 81.921 141.286 81.5198C141.729 80.4882 142.181 79.396 142.368 78.8013C142.486 78.4255 142.414 78.062 142.305 77.7793C142.196 77.4931 142.022 77.218 141.832 76.9676C141.452 76.4658 140.92 75.9511 140.391 75.4921C140.219 75.3426 140.15 75.1001 140.21 74.8582C140.268 74.6222 140.421 74.4835 140.611 74.4544L142.874 74.1088C143.387 74.0305 143.848 73.7506 144.154 73.3313L145.886 70.9591Z" fill="#FFDE06" stroke="#151417" stroke-width="1.5" stroke-linecap="round" stroke-linejoin="round"/>
<path d="M145.288 42.7602C145.392 42.6126 145.561 42.5444 145.756 42.5728C145.956 42.6019 146.127 42.7265 146.203 42.9167C146.443 43.5189 146.724 44.1596 147.025 44.6988C147.175 44.9683 147.338 45.2268 147.511 45.4475C147.677 45.6597 147.888 45.8824 148.146 46.0299C148.806 46.4063 150.226 46.9053 151.334 47.2719C151.675 47.3846 151.768 47.8069 151.543 48.0456L150.102 49.5702C149.674 50.0231 149.489 50.6531 149.603 51.2656L149.932 53.0323C149.966 53.2184 149.893 53.388 149.724 53.5081C149.547 53.6329 149.313 53.6661 149.104 53.5704C148.187 53.1515 147.304 52.8645 146.204 52.5996C145.813 52.5054 145.408 52.5394 145.043 52.6841L141.948 53.913C141.601 54.0505 141.209 53.7158 141.329 53.3236C141.496 52.7771 141.66 52.2165 141.785 51.7417C141.902 51.2997 142.009 50.8443 142.021 50.5596C142.03 50.3513 141.969 50.1639 141.925 50.0478C141.875 49.9147 141.808 49.7774 141.735 49.6443C141.588 49.3772 141.387 49.0685 141.163 48.7468C140.711 48.1003 140.121 47.3425 139.564 46.6526C139.299 46.3233 139.558 45.81 139.97 45.82C140.677 45.8374 141.399 45.8464 141.956 45.8329C142.231 45.8262 142.486 45.8137 142.683 45.7908C142.778 45.7798 142.89 45.7632 142.994 45.7341C143.044 45.72 143.124 45.6946 143.208 45.6481C143.268 45.6151 143.446 45.5107 143.551 45.2878C143.555 45.2813 143.561 45.2702 143.572 45.2532C143.598 45.2105 143.637 45.1499 143.689 45.0718C143.791 44.9164 143.933 44.7072 144.101 44.4622C144.437 43.973 144.871 43.3531 145.288 42.7602Z" fill="#FFDE06" stroke="#151417" stroke-width="1.5" stroke-linecap="round" stroke-linejoin="round"/>
<path d="M96.632 15.0969C96.6668 15.0553 96.7 15.0164 96.7316 14.9803C96.8571 15.183 96.9998 15.4564 97.1519 15.784C97.5541 16.6507 97.9475 17.7327 98.1833 18.4151L98.8922 18.1702L98.1833 18.4151C98.4033 19.0519 98.9335 19.5444 99.603 19.6995L102.042 20.2643C102.377 20.3418 102.504 20.7514 102.273 21.0052L100.854 22.5579C100.282 23.1842 100.191 24.0889 100.559 24.816C100.898 25.4863 101.33 26.4271 101.521 27.176C101.586 27.4309 101.61 27.6137 101.613 27.7332C101.101 27.6925 100.341 27.4491 99.5003 27.0917C98.611 26.7138 97.743 26.2586 97.1959 25.9576C96.6219 25.6419 95.9181 25.6179 95.3202 25.9279L92.2762 27.5061C92.0862 27.6046 91.88 27.5664 91.7135 27.3986C91.5442 27.228 91.4953 26.9991 91.5952 26.7908C91.9086 26.1379 92.2005 25.4857 92.3934 24.9542C92.4887 24.6915 92.5697 24.4319 92.6125 24.2036C92.6339 24.0902 92.6509 23.9587 92.6469 23.8245C92.6433 23.7047 92.6213 23.4908 92.4837 23.2875C92.3436 23.0805 91.979 22.6402 91.5702 22.1582C91.1462 21.6582 90.6338 21.0663 90.1655 20.5289C89.9332 20.2623 90.0793 19.8474 90.419 19.7812L93.0874 19.2612C93.625 19.1564 94.0898 18.8327 94.3776 18.3724C94.7067 17.8462 95.2803 16.9463 95.844 16.1444C96.1266 15.7424 96.399 15.376 96.632 15.0969Z" fill="#FFDE06" stroke="#151417" stroke-width="1.5" stroke-linecap="round" stroke-linejoin="round"/>
<path d="M69.7621 21.6189C69.9605 21.2544 70.1633 20.9769 70.3871 20.7839C70.5004 20.9194 70.648 21.176 70.8066 21.5727C71.1649 22.4689 71.4319 23.6907 71.5829 24.5008C71.7244 25.2594 72.2907 25.8915 73.0646 26.0801L75.1559 26.5899C75.4907 26.6715 75.6641 27.1507 75.3654 27.4534C74.9213 27.9034 74.4577 28.4014 74.104 28.8524C73.9282 29.0766 73.7649 29.3076 73.6442 29.5279C73.5412 29.7159 73.3955 30.0233 73.4179 30.3597C73.4312 30.5611 73.4901 30.7735 73.5467 30.9505C73.6072 31.1396 73.6861 31.3499 73.7688 31.5631C73.8099 31.6692 73.8523 31.777 73.8953 31.8861C74.0306 32.23 74.1716 32.5884 74.2973 32.9569C74.4631 33.4434 74.5811 33.8895 74.6127 34.2577C74.6398 34.5721 74.5966 34.7392 74.5519 34.8235C74.5141 34.8269 74.4426 34.8266 74.3211 34.8055C74.0229 34.7537 73.6177 34.6035 73.1439 34.3724C72.2081 33.9161 71.1934 33.2394 70.5815 32.8083C70.04 32.4268 69.3329 32.3256 68.698 32.5777L65.7569 33.7452C65.41 33.8829 65.0562 33.5622 65.1592 33.2035L65.7577 31.1184C65.9335 30.5058 65.7988 29.846 65.397 29.3513L63.4248 26.9238C63.211 26.6607 63.3533 26.2502 63.6996 26.1825C64.8154 25.9644 66.165 25.6883 66.9978 25.474C67.6333 25.3105 68.0719 24.889 68.3868 24.4422C68.695 24.0048 68.9305 23.4765 69.1348 22.9986C69.1687 22.9192 69.2019 22.8409 69.2346 22.7638C69.4097 22.3509 69.5714 21.9694 69.7621 21.6189ZM74.5873 34.8168C74.5875 34.817 74.5853 34.818 74.5802 34.8192C74.5845 34.8172 74.5871 34.8166 74.5873 34.8168Z" fill="#FFDE06" stroke="#151417" stroke-width="1.5" stroke-linecap="round" stroke-linejoin="round"/>
<path d="M124.209 20.8377C124.208 20.8368 124.213 20.8377 124.223 20.8432C124.213 20.8414 124.209 20.8387 124.209 20.8377ZM124.237 20.8524C124.261 20.8694 124.302 20.9043 124.36 20.972C124.532 21.1729 124.72 21.518 124.906 21.9812C125.272 22.8929 125.536 24.0278 125.677 24.7164C125.794 25.2918 126.166 25.8453 126.777 26.1069C127.238 26.3041 127.715 26.4629 128.277 26.6019C128.493 26.6554 128.693 26.8479 128.778 27.1626C128.863 27.4796 128.794 27.788 128.624 27.9772C128.327 28.3064 128.045 28.6701 127.837 29.0492C127.633 29.4218 127.469 29.865 127.485 30.3362C127.509 31.0222 127.665 31.9665 127.835 32.8302C127.874 33.0289 127.794 33.228 127.619 33.3655C127.444 33.5029 127.234 33.532 127.052 33.4468C126.438 33.1594 125.786 32.871 125.212 32.6548C124.925 32.5469 124.648 32.4529 124.398 32.3861C124.162 32.3232 123.894 32.2682 123.649 32.2756C123.375 32.2839 123.068 32.379 122.805 32.4758C122.519 32.5809 122.195 32.7236 121.856 32.8851C121.177 33.2088 120.397 33.629 119.679 34.032C119.498 34.1343 119.304 34.1088 119.159 34.0028C119.019 33.8999 118.953 33.7456 119 33.5627C119.159 32.9432 119.331 32.3163 119.499 31.7874C119.674 31.2348 119.822 30.8606 119.921 30.696C120.137 30.3367 120.113 29.9522 120.041 29.6666C119.969 29.3802 119.826 29.1022 119.67 28.8539C119.357 28.3538 118.89 27.821 118.422 27.3399C118.271 27.1842 118.209 26.9293 118.296 26.6464C118.384 26.3623 118.585 26.171 118.809 26.1186L118.638 25.3884L118.809 26.1186C119.35 25.992 119.915 25.8342 120.56 25.635C121.125 25.4603 121.561 25.0408 121.786 24.5285C122.034 23.9674 122.466 23.0525 122.972 22.251C123.226 21.8495 123.485 21.4982 123.734 21.2385C123.964 20.9984 124.135 20.891 124.237 20.8524Z" fill="#FFDE06" stroke="#151417" stroke-width="1.5" stroke-linecap="round" stroke-linejoin="round"/>
<path d="M51.2451 71.0892C51.0501 70.8261 50.567 70.8416 50.401 71.2228C50.1457 71.8096 49.8499 72.4429 49.5519 72.9783C49.403 73.2457 49.2469 73.5008 49.0884 73.7181C48.9384 73.9239 48.7505 74.1462 48.5278 74.3001C48.1848 74.5371 47.6449 74.7138 47.1437 74.85C46.6079 74.9956 45.9905 75.1263 45.4095 75.2356C45.0004 75.3126 44.8705 75.7997 45.1054 76.0569L46.3841 77.4565C46.9346 78.059 47.0374 78.9169 46.7301 79.6269C46.4911 80.1791 46.1986 80.9376 46.0447 81.6347C45.9675 81.9842 45.9327 82.2856 45.9433 82.5207C45.9509 82.6884 45.9795 82.7827 46.0018 82.8314C46.0377 82.835 46.1029 82.8359 46.2105 82.8207C46.4866 82.7818 46.8647 82.6564 47.3138 82.455C48.2015 82.0569 49.182 81.4471 49.8328 81.0157C50.5108 80.5662 51.3875 80.5668 52.0666 80.9861C52.6082 81.3205 53.3715 81.7513 54.1073 82.0344C54.4755 82.1762 54.8103 82.2704 55.09 82.3052C55.3782 82.3412 55.5365 82.3052 55.6101 82.2683L55.9461 82.9388L55.6101 82.2683L55.6117 82.2675C55.6317 82.2576 55.6624 82.2423 55.6886 82.1346C55.7215 81.999 55.7252 81.7818 55.6731 81.479C55.5698 80.8774 55.2908 80.1748 55.0425 79.6382C54.7196 78.9403 54.7872 78.0771 55.3219 77.4518L56.3903 76.2025C56.5072 76.0658 56.5481 75.8457 56.4161 75.5692C56.281 75.2864 56.0229 75.0873 55.7632 75.0485C54.8498 74.9119 53.7135 74.5871 53.1238 73.7102C52.6329 72.9802 51.8934 71.9641 51.2451 71.0892ZM45.9653 82.8242C45.9652 82.8244 45.9668 82.8251 45.9705 82.8261C45.9672 82.8246 45.9654 82.8241 45.9653 82.8242Z" fill="#FFDE06" stroke="#151417" stroke-width="1.5" stroke-linecap="round" stroke-linejoin="round"/>
<path d="M51.7861 42.9069C51.6814 42.7561 51.5036 42.6812 51.2868 42.7145C51.0647 42.7487 50.8782 42.8884 50.7995 43.0893L50.1011 42.8157L50.7995 43.0893C50.574 43.6647 50.3045 44.2689 50.0012 44.7803C49.7168 45.2601 49.3306 45.7856 48.8248 46.0452C48.0861 46.4243 46.7502 46.7452 45.6745 46.9675C45.2806 47.0489 45.1507 47.5163 45.3745 47.7742L46.8797 49.5083C47.3408 50.0396 47.4743 50.7682 47.2629 51.4212C47.0651 52.0322 46.7842 52.9591 46.6079 53.7904C46.5192 54.2089 46.463 54.5759 46.4508 54.8544C46.4506 54.86 46.4504 54.8656 46.4502 54.8711C46.773 54.7859 47.2107 54.6114 47.7095 54.3785C48.7028 53.9147 49.805 53.2833 50.4375 52.9087C50.9601 52.5991 51.5995 52.5416 52.1727 52.7692L54.8732 53.8412C55.2391 53.9865 55.6016 53.6245 55.457 53.2584L54.7909 51.5723C54.4937 50.8202 54.6918 49.9626 55.2888 49.417L57.8228 47.1013C58.0985 46.8492 57.9643 46.3903 57.5962 46.3267L54.4942 45.7905C53.9796 45.7015 53.5222 45.4098 53.2245 44.9806L51.7861 42.9069ZM46.4672 55.1738C46.4673 55.1737 46.4669 55.1722 46.4658 55.1694C46.4667 55.1725 46.4672 55.1739 46.4672 55.1738ZM46.1512 54.9224C46.1471 54.9219 46.1449 54.9218 46.1448 54.9219C46.1447 54.922 46.1467 54.9222 46.1512 54.9224Z" fill="#FFDE06" stroke="#151417" stroke-width="1.5" stroke-linecap="round" stroke-linejoin="round"/>
<path d="M84.8015 60.3995V81.3943L77.0872 82.132C76.8861 76.9449 75.5626 64.0077 78.0265 53.8932C80.5755 43.4294 92.7607 40.8134 98.6187 40.7463C100.787 40.5451 106.681 41.1622 112.906 45.2404C119.13 49.3186 121.357 57.1798 121.693 59.997C122.028 62.8143 121.693 81.3943 121.693 81.3943H113.778C113.845 78.1523 113.939 70.3401 113.778 65.0277C113.617 59.7153 111.743 55.9278 110.826 54.698C109.395 52.4175 104.387 48.1113 95.8015 49.1308C87.2158 50.1504 84.8908 57.0681 84.8015 60.3995Z" fill="white" stroke="#151417" stroke-width="1.5" stroke-linecap="round" stroke-linejoin="round"/>
<path d="M68.9066 79.6069C68.9069 74.6674 73.2314 72.7462 76.2743 71.8218C79.3172 70.8974 117.371 70.9157 122.622 71.8218C127.797 72.7148 129.097 77.0119 129.052 79.6069C129.052 84.1607 128.722 91.7416 128.722 98.5605C128.722 105.409 129.052 111.492 129.052 114.506C129.052 120.519 124.766 122.38 122.622 122.559C109.45 122.649 81.1953 123.324 76.2743 122.559C71.3533 121.794 68.9396 116.553 68.9066 114.472C68.8951 113.75 69.272 108.398 69.2722 103.501C69.2728 94.2934 68.9064 82.8314 68.9066 79.6069Z" fill="white" stroke="#151417" stroke-width="1.5" stroke-linecap="round" stroke-linejoin="round"/>
<path d="M84.5504 94.707C87.0363 85.742 98.0909 83.526 102.956 85.4081C107.821 87.2903 113.186 92.8711 112.995 99.3564C112.756 107.463 106.063 112.351 99.1312 113.662C92.1994 114.974 81.443 105.913 84.5504 94.707Z" fill="#00FFFF" stroke="#151417" stroke-width="1.5"/>
<path d="M99.4862 106.615C96.7435 106.362 91.6174 102.246 90.4253 100.837C89.2332 99.429 91.1405 95.8901 92.3329 95.8848C93.5253 95.8796 97.2215 100.837 98.5329 100.837C99.8442 100.837 109.343 85.6603 110.376 85.036C111.409 84.4117 113.873 86.8415 113.952 87.3006C114.032 87.7598 102.229 106.868 99.4862 106.615Z" fill="white" stroke="#151417" stroke-width="1.5" stroke-linecap="round" stroke-linejoin="round"/>
</svg>
