<svg width="80" height="80" viewBox="0 0 80 80" fill="none" xmlns="http://www.w3.org/2000/svg">
<path fill-rule="evenodd" clip-rule="evenodd" d="M66.6505 24.2484C61.2937 21.826 54.2128 24.1143 50.6562 26.8848C48.1106 29.6752 46.5218 32.3199 45.6297 34.7877C43.9992 33.9603 41.974 33.2926 39.7763 33.2926C38.0363 33.2926 36.4876 33.7949 35.1904 34.4969C33.5696 28.3852 28.8616 26.2684 24.8837 24.4798L24.8836 24.4797C24.711 24.4021 24.5397 24.3251 24.3702 24.2485C19.0134 21.826 11.9326 24.1143 8.37591 26.8848C-3.76123 40.1893 5.85183 50.1806 9.03051 53.4843L9.03052 53.4843L9.03118 53.485C9.1216 53.579 9.20681 53.6676 9.28616 53.7506C12.001 56.5928 32.3024 61.032 35.1631 45.4649C35.629 42.9299 35.8115 40.7278 35.7654 38.806C37.0891 38.3174 38.4986 37.9636 39.7763 37.9636C41.2684 37.9636 43.0602 38.4461 44.7182 39.0623C44.2603 46.1565 49.2018 51.2923 51.3107 53.4843C51.4014 53.5785 51.4869 53.6673 51.5664 53.7506C54.2812 56.5928 74.5826 61.032 77.4434 45.4649C80.2209 30.3506 72.9263 27.0707 67.1639 24.4798C66.9913 24.4021 66.82 24.3251 66.6505 24.2484ZM64.8905 29.4683C61.3193 27.8533 56.5987 29.3789 54.2276 31.2259C46.1362 40.0956 52.5449 46.7564 54.664 48.9589C54.7245 49.0217 54.7814 49.0809 54.8344 49.1364C56.6443 51.0312 70.1786 53.9907 72.0858 43.6126C73.9375 33.5364 69.0744 31.3498 65.2328 29.6225L65.2324 29.6224C65.1175 29.5707 65.0034 29.5194 64.8905 29.4683ZM11.9472 31.2259C14.3183 29.3789 19.0389 27.8534 22.6101 29.4684C22.7231 29.5195 22.8373 29.5708 22.9524 29.6226C26.794 31.3499 31.6571 33.5365 29.8054 43.6126C27.8982 53.9907 14.3639 51.0312 12.5541 49.1365C12.501 49.0809 12.4441 49.0217 12.3836 48.9589C10.2645 46.7564 3.85579 40.0956 11.9472 31.2259Z" fill="white"/>
<path d="M50.6562 26.8848L50.0416 26.0959C49.997 26.1306 49.9555 26.1691 49.9174 26.2109L50.6562 26.8848ZM66.6505 24.2484L66.2384 25.1596L66.2384 25.1596L66.6505 24.2484ZM45.6297 34.7877L45.1772 35.6794C45.4327 35.8091 45.7316 35.8229 45.998 35.7174C46.2644 35.6118 46.4727 35.3971 46.5701 35.1276L45.6297 34.7877ZM35.1904 34.4969L34.2238 34.7532C34.3024 35.0495 34.5125 35.2933 34.7938 35.4149C35.0752 35.5364 35.3968 35.5222 35.6663 35.3763L35.1904 34.4969ZM24.8837 24.4798L25.2938 23.5677L25.2937 23.5677L24.8837 24.4798ZM24.8836 24.4797L24.4735 25.3918L24.4736 25.3918L24.8836 24.4797ZM24.3702 24.2485L24.7823 23.3373L24.7823 23.3373L24.3702 24.2485ZM8.37591 26.8848L7.76139 26.0959C7.7168 26.1307 7.67523 26.1691 7.63714 26.2109L8.37591 26.8848ZM9.03051 53.4843L8.30989 54.1776C8.31435 54.1823 8.31885 54.1869 8.3234 54.1914L9.03051 53.4843ZM9.03052 53.4843L9.75037 52.7902C9.74616 52.7858 9.74191 52.7815 9.73763 52.7772L9.03052 53.4843ZM9.03118 53.485L9.7518 52.7917L9.75102 52.7909L9.03118 53.485ZM9.28616 53.7506L10.0093 53.0599L10.0093 53.0599L9.28616 53.7506ZM35.1631 45.4649L34.1796 45.2842L34.1796 45.2842L35.1631 45.4649ZM35.7654 38.806L35.4191 37.8679C35.0181 38.016 34.7555 38.4026 34.7657 38.83L35.7654 38.806ZM44.7182 39.0623L45.7162 39.1267C45.7446 38.686 45.4806 38.2788 45.0666 38.125L44.7182 39.0623ZM51.3107 53.4843L50.5901 54.1776L50.5901 54.1776L51.3107 53.4843ZM51.5664 53.7506L52.2895 53.0599L52.2895 53.0599L51.5664 53.7506ZM77.4434 45.4649L78.4269 45.6456L78.4269 45.6456L77.4434 45.4649ZM67.1639 24.4798L67.574 23.5677L67.574 23.5677L67.1639 24.4798ZM54.2276 31.2259L53.6131 30.437C53.5685 30.4717 53.5269 30.5102 53.4888 30.552L54.2276 31.2259ZM64.8905 29.4683L65.3026 28.5572L65.3025 28.5572L64.8905 29.4683ZM54.664 48.9589L55.3846 48.2656L55.3846 48.2656L54.664 48.9589ZM54.8344 49.1364L55.5576 48.4457L55.5576 48.4457L54.8344 49.1364ZM72.0858 43.6126L73.0693 43.7934L73.0693 43.7934L72.0858 43.6126ZM65.2328 29.6225L64.8208 30.5337L64.8227 30.5346L65.2328 29.6225ZM65.2324 29.6224L65.6445 28.7112L65.6425 28.7103L65.2324 29.6224ZM22.6101 29.4684L23.0221 28.5572L23.0221 28.5572L22.6101 29.4684ZM11.9472 31.2259L11.3327 30.437C11.2881 30.4718 11.2465 30.5102 11.2085 30.552L11.9472 31.2259ZM22.9524 29.6226L23.3625 28.7105L23.3625 28.7105L22.9524 29.6226ZM29.8054 43.6126L28.8218 43.4319L28.8218 43.4319L29.8054 43.6126ZM12.5541 49.1365L13.2772 48.4457L13.2772 48.4457L12.5541 49.1365ZM12.3836 48.9589L13.1042 48.2656L13.1042 48.2656L12.3836 48.9589ZM51.2707 27.6737C52.9193 26.3895 55.4368 25.1842 58.187 24.5972C60.9381 24.0101 63.8147 24.0635 66.2384 25.1596L67.0625 23.3373C64.1295 22.0109 60.7873 21.9972 57.7696 22.6413C54.7509 23.2855 51.9497 24.6096 50.0416 26.0959L51.2707 27.6737ZM46.5701 35.1276C47.4101 32.8041 48.9217 30.2699 51.3949 27.5588L49.9174 26.2109C47.2995 29.0805 45.6335 31.8357 44.6892 34.4477L46.5701 35.1276ZM46.0822 33.8959C44.3548 33.0193 42.1735 32.2926 39.7763 32.2926V34.2926C41.7745 34.2926 43.6436 34.9012 45.1772 35.6794L46.0822 33.8959ZM39.7763 32.2926C37.8395 32.2926 36.1283 32.8523 34.7144 33.6174L35.6663 35.3763C36.8469 34.7375 38.2331 34.2926 39.7763 34.2926V32.2926ZM36.157 34.2405C34.4023 27.6242 29.246 25.3448 25.2938 23.5677L24.4736 25.3918C28.4771 27.1919 32.7368 29.1463 34.2238 34.7532L36.157 34.2405ZM25.2937 23.5677L25.2936 23.5676L24.4736 25.3918L24.4737 25.3919L25.2937 23.5677ZM25.2936 23.5677C25.1209 23.49 24.9506 23.4135 24.7823 23.3373L23.9582 25.1596C24.1288 25.2368 24.3011 25.3142 24.4735 25.3918L25.2936 23.5677ZM24.7823 23.3373C21.8492 22.0109 18.507 21.9973 15.4893 22.6413C12.4707 23.2855 9.66949 24.6096 7.76139 26.0959L8.99044 27.6737C10.639 26.3895 13.1566 25.1842 15.9067 24.5972C18.6578 24.0101 21.5344 24.0635 23.9582 25.1596L24.7823 23.3373ZM7.63714 26.2109C1.36274 33.0888 0.610015 39.2624 1.99696 44.205C3.35562 49.0469 6.72583 52.5313 8.30989 54.1776L9.75112 52.791C8.1565 51.1336 5.13085 47.9706 3.92259 43.6647C2.74262 39.4597 3.25194 33.9854 9.11469 27.5588L7.63714 26.2109ZM8.3234 54.1914L8.32342 54.1914L9.73763 52.7772L9.73761 52.7772L8.3234 54.1914ZM8.31068 54.1785L8.31133 54.1791L9.75102 52.7909L9.75037 52.7902L8.31068 54.1785ZM8.31056 54.1783C8.40127 54.2726 8.48517 54.3598 8.56304 54.4413L10.0093 53.0599C9.92845 52.9753 9.84193 52.8854 9.7518 52.7917L8.31056 54.1783ZM8.56304 54.4413C9.03936 54.94 9.79787 55.3842 10.6556 55.7636C11.5393 56.1545 12.6233 56.5177 13.8338 56.8152C16.2522 57.4097 19.2432 57.7585 22.2529 57.5078C25.2596 57.2573 28.3464 56.4027 30.8876 54.5319C33.4516 52.6443 35.388 49.7739 36.1467 45.6456L34.1796 45.2842C33.5079 48.9395 31.8338 51.3518 29.7019 52.9213C27.5472 54.5075 24.8525 55.2843 22.0869 55.5147C19.3243 55.7448 16.5521 55.4239 14.3111 54.873C13.1919 54.5979 12.2221 54.2696 11.4647 53.9346C10.6814 53.5881 10.2117 53.2718 10.0093 53.0599L8.56304 54.4413ZM36.1467 45.6456C36.6225 43.0562 36.8131 40.7845 36.7651 38.7821L34.7657 38.83C34.8099 40.6711 34.6354 42.8036 34.1796 45.2842L36.1467 45.6456ZM36.1117 39.7442C37.3817 39.2754 38.6654 38.9636 39.7763 38.9636V36.9636C38.3319 36.9636 36.7965 37.3595 35.4191 37.8679L36.1117 39.7442ZM39.7763 38.9636C41.0885 38.9636 42.7466 39.3964 44.3699 39.9997L45.0666 38.125C43.3739 37.4959 41.4483 36.9636 39.7763 36.9636V38.9636ZM52.0314 52.7909C49.8964 50.572 45.2898 45.7319 45.7162 39.1267L43.7203 38.9979C43.2308 46.5812 48.5071 52.0127 50.5901 54.1776L52.0314 52.7909ZM52.2895 53.0599C52.2085 52.975 52.1217 52.8849 52.0314 52.7909L50.5901 54.1776C50.6811 54.2722 50.7652 54.3596 50.8433 54.4413L52.2895 53.0599ZM76.4598 45.2841C75.7881 48.9395 74.1141 51.3518 71.9821 52.9213C69.8274 54.5075 67.1327 55.2843 64.3671 55.5147C61.6045 55.7448 58.8324 55.4238 56.5914 54.873C55.4721 54.5979 54.5023 54.2696 53.745 53.9346C52.9617 53.588 52.4919 53.2717 52.2895 53.0599L50.8433 54.4413C51.3196 54.94 52.0781 55.3841 52.9359 55.7636C53.8195 56.1545 54.9035 56.5177 56.114 56.8152C58.5325 57.4096 61.5235 57.7585 64.5332 57.5078C67.5399 57.2573 70.6266 56.4027 73.1678 54.5319C75.7318 52.6443 77.6683 49.7739 78.4269 45.6456L76.4598 45.2841ZM66.7539 25.3918C69.6676 26.7019 72.6788 28.0772 74.6962 30.8626C76.6789 33.6002 77.8187 37.8898 76.4598 45.2841L78.4269 45.6456C79.8456 37.9257 78.7268 33.0182 76.316 29.6895C73.9399 26.4087 70.4227 24.8486 67.574 23.5677L66.7539 25.3918ZM66.2384 25.1596C66.4091 25.2368 66.5814 25.3143 66.7539 25.3918L67.574 23.5677C67.4012 23.49 67.2309 23.4135 67.0625 23.3373L66.2384 25.1596ZM54.8421 32.0148C55.898 31.1924 57.529 30.4086 59.3177 30.0268C61.1074 29.6449 62.9475 29.6872 64.4784 30.3795L65.3025 28.5572C63.2623 27.6345 60.9565 27.632 58.9003 28.0709C56.8432 28.5099 54.9284 29.4124 53.6131 30.437L54.8421 32.0148ZM55.3846 48.2656C54.3198 47.1588 52.3601 45.1037 51.5797 42.3224C50.8275 39.642 51.1265 36.1091 54.9664 31.8999L53.4888 30.552C49.2373 35.2124 48.6949 39.4447 49.654 42.8628C50.5849 46.18 52.8891 48.5565 53.9434 49.6522L55.3846 48.2656ZM55.5576 48.4457C55.503 48.3886 55.4448 48.3281 55.3846 48.2656L53.9434 49.6522C54.0041 49.7153 54.0598 49.7732 54.1113 49.8272L55.5576 48.4457ZM71.1022 43.4319C70.6689 45.7899 69.5966 47.3218 68.2473 48.3151C66.8753 49.3252 65.1441 49.8301 63.3406 49.9803C61.54 50.1303 59.7284 49.9209 58.264 49.561C57.533 49.3813 56.9055 49.1683 56.4217 48.9542C55.9119 48.7287 55.6468 48.5392 55.5576 48.4457L54.1113 49.8272C54.4745 50.2074 55.0283 50.5248 55.6126 50.7833C56.2227 51.0532 56.9644 51.3011 57.7866 51.5032C59.4285 51.9068 61.459 52.144 63.5066 51.9734C65.5513 51.8031 67.6744 51.2204 69.433 49.9257C71.2144 48.6143 72.549 46.6243 73.0693 43.7934L71.1022 43.4319ZM64.8227 30.5346C66.7761 31.4129 68.6992 32.2989 69.9844 34.0733C71.2348 35.7999 71.9982 38.5566 71.1022 43.4319L73.0693 43.7934C74.0251 38.5924 73.2827 35.2178 71.6042 32.9002C69.9603 30.6304 67.5311 29.5595 65.6429 28.7105L64.8227 30.5346ZM64.8204 30.5335L64.8208 30.5337L65.6449 28.7114L65.6445 28.7112L64.8204 30.5335ZM64.4784 30.3795C64.5925 30.4311 64.7076 30.4828 64.8223 30.5344L65.6425 28.7103C65.5274 28.6585 65.4143 28.6077 65.3026 28.5572L64.4784 30.3795ZM23.0221 28.5572C20.9819 27.6345 18.6762 27.6321 16.6199 28.0709C14.5628 28.5099 12.648 29.4124 11.3327 30.437L12.5618 32.0148C13.6176 31.1924 15.2486 30.4086 17.0374 30.0269C18.827 29.6449 20.6671 29.6872 22.198 30.3795L23.0221 28.5572ZM23.3625 28.7105C23.2472 28.6587 23.134 28.6078 23.0221 28.5572L22.198 30.3795C22.3122 30.4312 22.4274 30.4829 22.5423 30.5346L23.3625 28.7105ZM30.7889 43.7934C31.7447 38.5925 31.0023 35.2178 29.3238 32.9002C27.6799 30.6304 25.2507 29.5595 23.3625 28.7105L22.5423 30.5346C24.4957 31.4129 26.4188 32.2989 27.704 34.0733C28.9544 35.7999 29.7178 38.5566 28.8218 43.4319L30.7889 43.7934ZM11.8309 49.8272C12.1941 50.2074 12.7479 50.5248 13.3322 50.7833C13.9423 51.0532 14.6841 51.3011 15.5062 51.5032C17.1481 51.9068 19.1786 52.144 21.2262 51.9734C23.2709 51.8031 25.394 51.2204 27.1526 49.9257C28.934 48.6143 30.2686 46.6244 30.7889 43.7934L28.8218 43.4319C28.3885 45.79 27.3162 47.3218 25.9669 48.3151C24.5949 49.3252 22.8637 49.8301 21.0602 49.9803C19.2597 50.1303 17.448 49.921 15.9836 49.561C15.2526 49.3814 14.6251 49.1683 14.1413 48.9543C13.6315 48.7287 13.3664 48.5392 13.2772 48.4457L11.8309 49.8272ZM11.663 49.6522C11.7237 49.7154 11.7794 49.7732 11.8309 49.8272L13.2772 48.4457C13.2227 48.3887 13.1644 48.3281 13.1042 48.2656L11.663 49.6522ZM11.2085 30.552C6.95691 35.2124 6.41452 39.4447 7.37365 42.8628C8.30449 46.18 10.6087 48.5565 11.663 49.6522L13.1042 48.2656C12.0394 47.1588 10.0797 45.1037 9.29928 42.3224C8.54713 39.642 8.84611 36.1091 12.686 31.8999L11.2085 30.552Z" fill="#151417"/>
</svg>
