<svg width="146" height="56" viewBox="0 0 146 56" fill="none" xmlns="http://www.w3.org/2000/svg">
<path d="M37.2127 21.2786H20.8084V26.1464H32.4425C31.8678 32.9722 26.1886 35.8834 20.8281 35.8834C13.9698 35.8834 7.98491 30.4873 7.98491 22.9238C7.98491 15.5559 13.6899 9.88172 20.8433 9.88172C26.362 9.88172 29.6139 13.3996 29.6139 13.3996L33.0225 9.87012C33.0225 9.87012 28.6478 5 20.6691 5C10.5092 5 2.64941 13.5748 2.64941 22.8367C2.64941 31.9125 10.0428 40.762 20.9281 40.762C30.5017 40.762 37.5097 34.2038 37.5097 24.5054C37.5097 22.4597 37.2127 21.277 37.2127 21.277V21.2786Z" fill="#151417"/>
<path d="M50.6513 17.7539C43.9201 17.7539 39.0962 23.0165 39.0962 29.1538C39.0962 35.3819 43.7753 40.7422 50.7303 40.7422C57.0266 40.7422 62.1849 35.9298 62.1849 29.2878C62.1849 21.6746 56.1846 17.7539 50.6513 17.7539ZM50.7181 22.2687C54.0281 22.2687 57.1649 24.9449 57.1649 29.257C57.1649 33.4777 54.0414 36.2302 50.703 36.2302C47.0345 36.2302 44.1404 33.292 44.1404 29.2234C44.1404 25.2422 46.9986 22.2687 50.7181 22.2687Z" fill="#151417"/>
<path d="M75.7816 17.7539C69.0505 17.7539 64.2266 23.0165 64.2266 29.1538C64.2266 35.3819 68.9056 40.7422 75.8606 40.7422C82.1569 40.7422 87.315 35.9298 87.315 29.2878C87.3153 21.6746 81.315 17.7539 75.7816 17.7539ZM75.8485 22.2687C79.1589 22.2687 82.2955 24.9449 82.2955 29.257C82.2955 33.4777 79.1721 36.2302 75.8334 36.2302C72.1651 36.2302 69.2711 33.292 69.2711 29.2234C69.2711 25.2422 72.129 22.2687 75.8485 22.2687Z" fill="#151417"/>
<path d="M100.43 17.7656C94.252 17.7656 89.3955 23.1768 89.3955 29.2505C89.3955 36.1689 95.0258 40.7567 100.324 40.7567C103.6 40.7567 105.342 39.4564 106.628 37.9639V40.2302C106.628 44.1955 104.22 46.5707 100.586 46.5707C97.0748 46.5707 95.314 43.9601 94.702 42.4786L90.2846 44.3255C91.8516 47.6392 95.0063 51.0948 100.623 51.0948C106.766 51.0948 111.447 47.2256 111.447 39.1106V18.4569H106.628V20.404C105.146 18.8072 103.12 17.7659 100.43 17.7656ZM100.878 22.2716C103.907 22.2716 107.017 24.8582 107.017 29.275C107.017 33.7648 103.913 36.2391 100.811 36.2391C97.5167 36.2391 94.4521 33.5647 94.4521 29.3177C94.4521 24.9049 97.6351 22.2716 100.878 22.2716Z" fill="#151417"/>
<path d="M132.875 17.7383C127.046 17.7383 122.153 22.3752 122.153 29.2171C122.153 36.4571 127.607 40.7508 133.435 40.7508C138.298 40.7508 141.282 38.0902 143.064 35.7065L139.09 33.0626C138.059 34.6627 136.335 36.2267 133.459 36.2267C130.227 36.2267 128.742 34.4572 127.821 32.7431L143.233 26.3481L142.433 24.474C140.944 20.8039 137.471 17.7388 132.875 17.7388L132.875 17.7383ZM133.075 22.1589C135.175 22.1589 136.687 23.2754 137.329 24.614L127.037 28.9161C126.593 25.5854 129.748 22.1589 133.075 22.1589Z" fill="#151417"/>
<path d="M114.806 40.0688H119.868V6.18945H114.806V40.0688Z" fill="#151417"/>
</svg>
