<svg width="156" height="56" viewBox="0 0 156 56" fill="none" xmlns="http://www.w3.org/2000/svg">
<path d="M147.113 26.3902V23.9521H144.085V20.1613L143.983 20.1928L141.139 21.0629L141.082 21.08V23.9521H136.594V22.3519C136.594 21.6071 136.76 21.0368 137.089 20.6568C137.415 20.2811 137.881 20.0901 138.475 20.0901C138.903 20.0901 139.345 20.1908 139.791 20.39L139.903 20.4398V17.8718L139.85 17.8528C139.435 17.7034 138.87 17.6279 138.168 17.6279C137.285 17.6279 136.483 17.8201 135.783 18.2013C135.082 18.5825 134.532 19.127 134.146 19.8194C133.761 20.5109 133.567 21.3095 133.567 22.1932V23.9525H131.458V26.3906H133.567V36.6616H136.593V26.3906H141.082V32.9182C141.082 35.6064 142.35 36.9685 144.85 36.9685C145.262 36.9685 145.694 36.9199 146.136 36.8258C146.585 36.7293 146.891 36.6321 147.071 36.5294L147.112 36.5056V34.045L146.989 34.1263C146.824 34.2356 146.621 34.3259 146.381 34.392C146.14 34.4597 145.938 34.4939 145.783 34.4939C145.197 34.4939 144.763 34.336 144.494 34.0244C144.222 33.7098 144.084 33.1598 144.084 32.3912V26.391H147.113V26.3902H147.113ZM124.701 34.4931C123.602 34.4931 122.736 34.1291 122.125 33.4114C121.512 32.6903 121.2 31.6626 121.2 30.3561C121.2 29.0083 121.512 27.9542 122.126 27.2198C122.737 26.4909 123.595 26.121 124.677 26.121C125.726 26.121 126.562 26.4742 127.159 27.172C127.761 27.8729 128.067 28.9196 128.067 30.283C128.067 31.6634 127.779 32.7229 127.214 33.4328C126.651 34.1361 125.805 34.4931 124.701 34.4931ZM124.836 23.6456C122.74 23.6456 121.076 24.2598 119.888 25.4707C118.702 26.6823 118.1 28.3587 118.1 30.4541C118.1 32.4437 118.688 34.0439 119.845 35.2108C121.003 36.3769 122.579 36.9685 124.528 36.9685C126.56 36.9685 128.191 36.3458 129.378 35.1186C130.565 33.8914 131.165 32.2305 131.165 30.1846C131.165 28.1631 130.601 26.5508 129.488 25.3921C128.375 24.2334 126.809 23.6456 124.836 23.6456ZM113.221 23.6456C111.795 23.6456 110.616 24.0101 109.715 24.7293C108.809 25.4524 108.349 26.4011 108.349 27.5489C108.349 28.146 108.448 28.6754 108.643 29.125C108.841 29.5762 109.144 29.9733 109.548 30.3063C109.949 30.6373 110.567 30.9831 111.387 31.3355C112.076 31.6191 112.591 31.8591 112.917 32.0481C113.236 32.2336 113.464 32.4196 113.591 32.6012C113.715 32.779 113.778 33.0213 113.778 33.3216C113.778 34.1754 113.139 34.5915 111.823 34.5915C111.336 34.5915 110.778 34.4892 110.169 34.2897C109.559 34.0878 108.988 33.7992 108.475 33.4293L108.349 33.3402V36.2532L108.395 36.2754C108.824 36.4734 109.363 36.6402 109.999 36.7705C110.635 36.902 111.212 36.9689 111.713 36.9689C113.26 36.9689 114.506 36.6025 115.415 35.8786C116.33 35.1509 116.793 34.1804 116.793 32.9917C116.793 32.136 116.544 31.4009 116.052 30.8081C115.564 30.2203 114.715 29.6816 113.532 29.2044C112.59 28.8259 111.986 28.5124 111.738 28.2716C111.498 28.0382 111.375 27.7096 111.375 27.2926C111.375 26.9227 111.526 26.6271 111.835 26.3871C112.146 26.1459 112.579 26.0234 113.124 26.0234C113.628 26.0234 114.144 26.1031 114.657 26.2587C115.169 26.4147 115.62 26.6236 115.995 26.8795L116.119 26.9639V24.1999L116.072 24.1793C115.724 24.0307 115.267 23.9035 114.712 23.8001C114.159 23.6974 113.657 23.6456 113.221 23.6456ZM100.46 34.4931C99.3612 34.4931 98.4942 34.1291 97.885 33.4114C97.2705 32.6903 96.9597 31.6626 96.9597 30.3561C96.9597 29.0083 97.2705 27.9542 97.885 27.2198C98.4949 26.4909 99.3526 26.121 100.435 26.121C101.485 26.121 102.32 26.4742 102.918 27.172C103.519 27.8729 103.825 28.9196 103.825 30.283C103.825 31.6634 103.538 32.7229 102.972 33.4328C102.409 34.1361 101.564 34.4931 100.46 34.4931ZM100.594 23.6456C98.4973 23.6456 96.8329 24.2598 95.6469 25.4707C94.4602 26.6823 93.8585 28.3587 93.8585 30.4541C93.8585 32.4444 94.4466 34.0439 95.6034 35.2108C96.7613 36.3773 98.3374 36.9685 100.287 36.9685C102.318 36.9685 103.95 36.3458 105.137 35.1186C106.322 33.8914 106.924 32.2305 106.924 30.1846C106.924 28.1631 106.36 26.5508 105.246 25.3921C104.134 24.2334 102.569 23.6456 100.594 23.6456ZM89.2648 26.1529V23.9518H86.2744V36.6608H89.2648V30.1597C89.2648 29.0538 89.5156 28.1456 90.01 27.4602C90.4986 26.7823 91.1497 26.4388 91.9443 26.4388C92.2131 26.4388 92.5157 26.4831 92.8433 26.571C93.1676 26.6586 93.4026 26.7531 93.5407 26.8527L93.6659 26.9437V23.9296L93.6173 23.909C93.3384 23.7907 92.9448 23.7308 92.4465 23.7308C91.695 23.7308 91.0229 23.972 90.4468 24.4473C89.9408 24.865 89.5763 25.438 89.2967 26.1521H89.2648V26.1529ZM80.921 23.6456C79.5499 23.6456 78.3258 23.9397 77.2858 24.5196C76.2425 25.1004 75.437 25.93 74.8882 26.9853C74.3421 28.0382 74.0647 29.2674 74.0647 30.6377C74.0647 31.8388 74.3331 32.9404 74.8648 33.912C75.3969 34.8844 76.1496 35.6456 77.1018 36.1731C78.0536 36.7001 79.1528 36.9677 80.3699 36.9677C81.7911 36.9677 83.0036 36.6842 83.976 36.1229L84.0156 36.1007V33.362L83.8904 33.4526C83.4497 33.7739 82.9577 34.0299 82.4279 34.2146C81.8993 34.399 81.4166 34.492 80.9942 34.492C79.821 34.492 78.8797 34.1256 78.1971 33.4017C77.5113 32.6763 77.164 31.6595 77.164 30.379C77.164 29.0904 77.5265 28.0468 78.2403 27.2766C78.9521 26.5088 79.8957 26.1195 81.0443 26.1195C82.0265 26.1195 82.9845 26.452 83.89 27.109L84.0153 27.2V24.3143L83.9748 24.2913C83.6337 24.1003 83.1697 23.9428 82.5913 23.8234C82.0179 23.7059 81.4551 23.6456 80.921 23.6456ZM72.0051 23.9521H69.0152V36.6616H72.0051V23.9521ZM70.5407 18.5377C70.0486 18.5377 69.62 18.7054 69.2676 19.0372C68.9132 19.3701 68.7335 19.7894 68.7335 20.2838C68.7335 20.7704 68.9113 21.1819 69.261 21.5063C69.6095 21.8295 70.0401 21.9929 70.5407 21.9929C71.0417 21.9929 71.473 21.8296 71.8262 21.5067C72.1813 21.1823 72.361 20.7708 72.361 20.2838C72.361 19.8065 72.186 19.3919 71.841 19.0508C71.496 18.7104 71.0584 18.5377 70.5407 18.5377ZM63.0815 23.0143V36.6616H66.1325V18.9267H61.9103L56.5429 32.0994L51.3335 18.9267H46.939V36.6616H49.806V23.0128H49.9044L55.4048 36.6608H57.5686L62.9831 23.014L63.0815 23.0143Z" fill="#151417"/>
<path d="M22.5384 27.0643H8.47412V13H22.538V27.0643H22.5384Z" fill="#151417"/>
<path d="M38.0663 27.0643H24.0024V13H38.0663V27.0643Z" fill="#151417"/>
<path d="M22.5379 42.5974H8.47363V28.5332H22.5375V42.5974H22.5379Z" fill="#151417"/>
<path d="M38.0663 42.5974H24.0024V28.5332H38.0663V42.5974Z" fill="#151417"/>
</svg>
