<svg width="106" height="56" viewBox="0 0 106 56" fill="none" xmlns="http://www.w3.org/2000/svg">
<path d="M18.1706 34.6089C18.5285 35.5588 19.0241 36.371 19.6574 37.0455C20.2907 37.7201 21.0409 38.2363 21.9081 38.5942C22.7754 38.9522 23.7184 39.1311 24.7371 39.1311C25.7284 39.1311 26.6575 38.9452 27.5248 38.5735C28.3921 38.2017 29.1493 37.6787 29.7962 37.0042C30.4432 36.3296 30.9457 35.5243 31.3037 34.5882C31.6616 33.6521 31.8405 32.6059 31.8405 31.4495V13.6084H36.1769V42.5175H31.8819V39.8331C30.9182 40.8517 29.7824 41.6364 28.4747 42.1872C27.1668 42.7378 25.7559 43.0131 24.2416 43.0131C22.6997 43.0131 21.2611 42.7446 19.9258 42.2077C18.5905 41.6709 17.4341 40.9069 16.4567 39.9157C15.4794 38.9245 14.7084 37.7339 14.144 36.3434C13.5796 34.953 13.2974 33.4043 13.2974 31.6972V13.6084H17.6337V31.4495C17.6337 32.6059 17.8126 33.6589 18.1706 34.6089ZM43.6516 13.6084V24.1396C44.6152 23.1759 45.7304 22.412 46.9968 21.8475C48.2633 21.283 49.64 21.0009 51.1267 21.0009C52.6686 21.0009 54.1139 21.2899 55.463 21.8681C56.8121 22.4462 57.9822 23.2309 58.9734 24.2222C59.9646 25.2134 60.7493 26.3834 61.3275 27.7325C61.9057 29.0817 62.1947 30.5134 62.1947 32.0277C62.1947 33.5419 61.9057 34.9667 61.3275 36.302C60.7493 37.6374 59.9646 38.8006 58.9734 39.7917C57.9822 40.7829 56.8121 41.5676 55.463 42.1458C54.1139 42.724 52.6685 43.013 51.1267 43.013C49.6399 43.013 48.2564 42.7308 46.9762 42.1663C45.6959 41.602 44.5739 40.8379 43.6103 39.8743V42.5174H39.4805V13.6084H43.6516ZM44.1265 34.8772C44.4982 35.7584 45.0145 36.5292 45.6753 37.19C46.336 37.8508 47.1069 38.374 47.988 38.7594C48.8691 39.1449 49.8189 39.3376 50.8376 39.3376C51.8288 39.3376 52.7649 39.1449 53.6459 38.7594C54.5269 38.374 55.2909 37.8509 55.938 37.19C56.585 36.5293 57.1012 35.7584 57.4867 34.8772C57.8721 33.9962 58.0649 33.0464 58.0649 32.0277C58.0649 31.0089 57.8721 30.0522 57.4867 29.1574C57.1012 28.2625 56.585 27.4848 55.938 26.824C55.291 26.1633 54.527 25.647 53.6459 25.2753C52.7648 24.9037 51.8288 24.7177 50.8376 24.7177C49.8465 24.7177 48.9104 24.9036 48.0294 25.2753C47.1483 25.6471 46.3774 26.1633 45.7166 26.824C45.0559 27.4848 44.5327 28.2625 44.1473 29.1574C43.7618 30.0522 43.5691 31.0089 43.5691 32.0277C43.569 33.0464 43.7549 33.9962 44.1265 34.8772ZM64.5483 27.7739C65.0989 26.4524 65.8562 25.2891 66.8197 24.2842C67.7833 23.2793 68.926 22.4877 70.2476 21.9096C71.5691 21.3314 73.0008 21.0423 74.5426 21.0423C76.0569 21.0423 77.4611 21.3177 78.7552 21.8683C80.0491 22.4189 81.1642 23.183 82.1003 24.1604C83.0364 25.1377 83.7661 26.2942 84.2891 27.6294C84.8122 28.9648 85.0738 30.4172 85.0738 31.9865V33.3494H67.9349C68.0726 34.2029 68.3479 34.9945 68.7609 35.724C69.1739 36.4536 69.6901 37.0869 70.3095 37.6237C70.929 38.1607 71.6311 38.5806 72.4158 38.8833C73.2005 39.1862 74.0333 39.3377 74.9144 39.3377C77.4199 39.3377 79.4435 38.3052 80.9853 36.2402L84.0001 38.4703C82.9539 39.8745 81.6599 40.9758 80.1181 41.7742C78.5762 42.5726 76.8417 42.9719 74.9145 42.9719C73.3451 42.9719 71.879 42.6965 70.5161 42.1459C69.1533 41.5953 67.9694 40.8243 66.9645 39.8331C65.9596 38.8419 65.168 37.6787 64.5898 36.3434C64.0117 35.0081 63.7225 33.5557 63.7225 31.9864C63.7223 30.4997 63.9978 29.0955 64.5483 27.7739ZM70.3508 26.1426C69.1807 27.12 68.4029 28.4209 68.0175 30.0453H80.8614C80.5035 28.4209 79.7394 27.12 78.5693 26.1426C77.3991 25.1652 76.0294 24.6765 74.4601 24.6765C72.8907 24.6765 71.521 25.1652 70.3508 26.1426ZM92.879 26.6175C91.998 27.5811 91.5574 28.8889 91.5574 30.5409V42.5176H87.3862V21.4552H91.516V24.057C92.0392 23.2035 92.7206 22.5289 93.5604 22.0334C94.4001 21.5377 95.3981 21.2899 96.5546 21.2899H98V25.172H96.2655C94.8889 25.1721 93.76 25.6539 92.879 26.6175Z" fill="#010202"/>
</svg>
