<svg width="80" height="14" fill="none" xmlns="http://www.w3.org/2000/svg"><path d="M7 1.13l1.493 3.024a1 1 0 00.752.547l3.338.485-2.415 2.354a1 1 0 00-.288.885l.57 3.324-2.985-1.57a1 1 0 00-.93 0L3.55 11.75l.57-3.324a1 1 0 00-.288-.885L1.417 5.186l3.338-.485a1 1 0 00.752-.547L7 1.13zm16 0l1.492 3.024a1 1 0 00.753.547l3.338.485-2.415 2.354a1 1 0 00-.288.885l.57 3.324-2.985-1.57a1 1 0 00-.93 0l-2.985 1.57.57-3.324a1 1 0 00-.288-.885l-2.415-2.354 3.337-.485a1 1 0 00.753-.547L23 1.13zm16 0l1.492 3.024a1 1 0 00.754.547l3.337.485-2.415 2.354a1 1 0 00-.288.885l.57 3.324-2.985-1.57a1 1 0 00-.93 0l-2.985 1.57.57-3.324a1 1 0 00-.288-.885l-2.415-2.354 3.337-.485a1 1 0 00.754-.547L39 1.13zm16 0l1.492 3.024a1 1 0 00.754.547l3.337.485-2.415 2.354a1 1 0 00-.288.885l.57 3.324-2.985-1.57a1 1 0 00-.93 0l-2.985 1.57.57-3.324a1 1 0 00-.288-.885l-2.415-2.354 3.337-.485a1 1 0 00.754-.547L55 1.13z" fill="#FFDE06" stroke="#151417"/><path d="M72 1.018l1.792 3.177.436-.245-.436.245a1 1 0 00.745.501l3.887.494-2.722 2.321a1 1 0 00-.332.954l.654 3.336-3.606-1.66a1 1 0 00-.836 0l-3.606 1.66.654-3.336a1 1 0 00-.332-.954l-2.722-2.32 3.887-.495a1 1 0 00.745-.5L72 1.017z" fill="#fff" stroke="#151417"/><path d="M67.975 11.8l.654-3.336a1 1 0 00-.332-.953l-2.733-2.33h0l4.552-.624 1.305 5.659-3.446 1.584z" fill="#FFDE06" stroke="#151417"/></svg>