<svg width="156" height="56" viewBox="0 0 156 56" fill="none" xmlns="http://www.w3.org/2000/svg">
<g clip-path="url(#clip0)">
<path d="M20.3459 18.3561L11.6317 23.9192L20.3459 29.4822L11.6317 35.0453L2.91748 29.4433L11.6317 23.8802L2.91748 18.3561L11.6317 12.793L20.3459 18.3561ZM11.5928 36.796L20.307 31.2329L29.0212 36.796L20.307 42.3591L11.5928 36.796ZM20.3459 29.4433L29.0601 23.8802L20.3459 18.3561L29.0212 12.793L37.7354 18.3561L29.0212 23.9192L37.7354 29.4822L29.0212 35.0453L20.3459 29.4433Z" fill="#151417"/>
<path d="M44.5435 18.3562H51.5849C56.0976 18.3562 59.7933 20.9627 59.7933 26.8759V28.1208C59.7933 34.1118 56.331 36.7961 51.7405 36.7961H44.5435V18.3562ZM48.4726 21.7019V33.4116H51.4681C54.0357 33.4116 55.7474 31.7388 55.7474 28.043V27.0704C55.7474 23.3747 53.9579 21.7019 51.3514 21.7019H48.4726ZM61.8552 21.8575H65.0063L65.512 25.3198C66.0956 22.9468 67.6517 21.7019 70.4138 21.7019H71.3864V25.67H69.7524C66.5624 25.67 65.7844 26.7981 65.7844 29.9493V36.7961H61.8941V21.8186H61.8552V21.8575ZM72.2033 29.6769V29.249C72.2033 24.2305 75.3933 21.5074 79.7504 21.5074C84.1854 21.5074 87.2976 24.2305 87.2976 29.249V29.6769C87.2976 34.5787 84.3021 37.2241 79.7504 37.2241C74.9265 37.1852 72.2033 34.5787 72.2033 29.6769ZM83.3295 29.5991V29.2101C83.3295 26.448 81.929 24.7752 79.7115 24.7752C77.533 24.7752 76.0936 26.2924 76.0936 29.2101V29.5991C76.0936 32.2834 77.4941 33.8006 79.7115 33.8006C81.929 33.8006 83.3295 32.3223 83.3295 29.5991ZM89.3594 21.8575H92.5883L92.9774 24.6974C93.7554 22.7911 95.4282 21.5074 97.8791 21.5074C101.692 21.5074 104.181 24.2305 104.181 29.2879V29.7158C104.181 34.6176 101.419 37.2241 97.8791 37.2241C95.5061 37.2241 93.911 36.1737 93.0941 34.462V42.0091H89.2816L89.3594 21.8575ZM100.252 29.5991V29.2879C100.252 26.3313 98.735 24.853 96.6731 24.853C94.4946 24.853 93.0552 26.5258 93.0552 29.2879V29.5602C93.0552 32.2056 94.4557 33.8784 96.6342 33.8784C98.8517 33.8395 100.252 32.4001 100.252 29.5991ZM109.939 34.0729L109.628 36.7961H106.282V16.8779H110.095V24.5418C110.912 22.5966 112.584 21.5463 114.957 21.5463C118.536 21.5852 121.182 24.036 121.182 29.0156V29.4824C121.182 34.4231 118.692 37.263 114.88 37.263C112.351 37.1852 110.717 36.0181 109.939 34.0729ZM117.175 29.4435V29.0545C117.175 26.3313 115.697 24.7752 113.596 24.7752C111.456 24.7752 109.978 26.4869 109.978 29.0934V29.4046C109.978 32.1667 111.417 33.8006 113.557 33.8006C115.813 33.8395 117.175 32.4001 117.175 29.4435ZM122.816 29.6769V29.249C122.816 24.2305 126.006 21.5074 130.363 21.5074C134.798 21.5074 137.91 24.2305 137.91 29.249V29.6769C137.91 34.5787 134.837 37.2241 130.363 37.2241C125.539 37.1852 122.816 34.5787 122.816 29.6769ZM133.981 29.5991V29.2101C133.981 26.448 132.58 24.7752 130.363 24.7752C128.184 24.7752 126.745 26.2924 126.745 29.2101V29.5991C126.745 32.2834 128.145 33.8006 130.363 33.8006C132.58 33.8006 133.981 32.3223 133.981 29.5991ZM143.006 29.0545L137.754 21.8575H142.267L145.263 26.3702L148.336 21.8575H152.771L147.441 28.9767L153.043 36.7572H148.647L145.224 31.8166L141.878 36.7572H137.326L143.006 29.0545Z" fill="#151417"/>
</g>
<defs>
<clipPath id="clip0">
<rect width="156" height="56" fill="white"/>
</clipPath>
</defs>
</svg>
