<svg width="16" height="16" fill="none" xmlns="http://www.w3.org/2000/svg"><path d="M13.033 9.707A.333.333 0 0112.7 10h-1.367a.333.333 0 00-.333.333v5.334a.333.333 0 00.333.333h4a.666.666 0 00.667-.667V.667A.666.666 0 0015.333 0H.667A.667.667 0 000 .667v14.666A.667.667 0 00.667 16H8a.333.333 0 00.333-.333v-5.334A.333.333 0 008 10H6.667a.333.333 0 01-.334-.333v-2a.333.333 0 01.334-.334H8A.333.333 0 008.333 7v-.873a3.793 3.793 0 013.794-3.794H13a.333.333 0 01.333.334v2A.333.333 0 0113 5h-.873A1.127 1.127 0 0011 6.127V7a.333.333 0 00.333.333h1.62a.334.334 0 01.334.374l-.254 2z" fill="#151417"/></svg>