<svg width="196" height="140" viewBox="0 0 196 140" fill="none" xmlns="http://www.w3.org/2000/svg">
<g clip-path="url(#clip0)">
<path d="M143.899 78.0817C143.899 103.108 123.611 123.396 98.5847 123.396C73.5586 123.396 53.2709 103.108 53.2709 78.0817C53.2709 53.0556 71.7671 35.4754 98.5847 32.7679C125.402 30.0605 143.899 53.0556 143.899 78.0817Z" fill="white" stroke="#151417" stroke-width="1.5"/>
<path d="M135.117 78.0817C135.117 98.2573 118.761 114.613 98.5855 114.613C78.4099 114.613 59.6504 96.6627 62.0543 78.0817C64.4581 59.5007 78.4099 41.5504 98.5855 41.5504C118.761 41.5504 135.117 57.906 135.117 78.0817Z" fill="#FFDE06" stroke="#151417" stroke-width="1.5"/>
<path d="M126.201 78.0816C122.685 93.7743 113.837 105.697 98.5853 105.697C83.3338 105.697 70.97 93.3331 70.97 78.0816C70.97 62.8301 83.3338 50.4663 98.5853 50.4663C113.837 50.4663 129.717 62.3889 126.201 78.0816Z" fill="white" stroke="#151417" stroke-width="1.5"/>
<path d="M117.046 78.0817C117.046 88.2775 109.826 98.8018 98.5851 96.5429C87.3446 94.284 80.1239 88.2775 80.1239 78.0817C80.1239 67.8858 88.3892 59.6205 98.5851 59.6205C108.781 59.6205 117.046 67.8858 117.046 78.0817Z" fill="#FFDE06" stroke="#151417" stroke-width="1.5"/>
<path d="M108.473 78.0816C108.473 83.5428 104.045 87.9699 98.5842 87.9699C93.123 87.9699 89.1774 83.5428 89.1774 78.0816C89.1774 72.6204 93.8855 68.8167 98.5842 68.1932C103.283 67.5696 108.473 72.6204 108.473 78.0816Z" fill="white" stroke="#151417" stroke-width="1.5"/>
<path d="M133.604 47.3485C132.639 48.7721 98.1408 76.1977 98.1408 76.1977C97.8272 76.554 97.8415 77.4663 98.54 78.4212C99.0987 79.1852 100.562 79.5108 101.109 79.2875C101.109 79.2875 135.127 50.8538 136.34 50.1992C137.553 49.5445 145.461 50.1992 146.717 50.1992C147.973 50.1992 160.159 40.3435 160.172 39.3665C160.186 38.3894 149.395 38.211 148.884 37.542C148.372 36.873 150.258 26.6345 149.682 26.0251C149.105 25.4158 136.803 36.0785 136.34 36.9719C135.878 37.8653 134.568 45.9248 133.604 47.3485Z" fill="#0655FF" stroke="#151417" stroke-width="1.5"/>
</g>
<defs>
<clipPath id="clip0">
<rect width="196" height="140" fill="white"/>
</clipPath>
</defs>
</svg>
