<svg width="459" height="332" viewBox="0 0 459 332" fill="none" xmlns="http://www.w3.org/2000/svg">
<rect x="1.00195" y="119" width="213" height="94" rx="3" fill="white" stroke="#151417" stroke-width="2"/>
<g clip-path="url(#clip0)">
<path d="M99.7158 142.042C102.597 139.045 106.608 137.187 111.043 137.187C116.94 137.187 122.085 140.469 124.824 145.342C127.205 144.28 129.84 143.69 132.613 143.69C143.248 143.69 151.871 152.372 151.871 163.082C151.871 173.793 143.248 182.476 132.613 182.476C131.315 182.476 130.046 182.346 128.82 182.098C126.407 186.395 121.81 189.297 116.533 189.297C114.324 189.297 112.234 188.788 110.374 187.882C107.928 193.625 102.23 197.652 95.5891 197.652C88.6732 197.652 82.7791 193.283 80.5167 187.157C79.528 187.366 78.5036 187.476 77.4526 187.476C69.2184 187.476 62.543 180.743 62.543 172.436C62.543 166.87 65.5422 162.01 69.9984 159.41C69.0809 157.302 68.5707 154.976 68.5707 152.531C68.5707 142.978 76.3391 135.234 85.9209 135.234C91.5465 135.234 96.546 137.905 99.7158 142.042Z" fill="#00A1E0"/>
<path d="M75.4811 167.603C75.4251 167.749 75.5015 167.779 75.5193 167.805C75.6873 167.926 75.8578 168.014 76.0296 168.112C76.9407 168.595 77.8008 168.736 78.7005 168.736C80.5328 168.736 81.6704 167.763 81.6704 166.196V166.166C81.6704 164.718 80.3865 164.192 79.1815 163.812L79.025 163.761C78.1164 163.466 77.3326 163.212 77.3326 162.615V162.584C77.3326 162.073 77.7907 161.697 78.5007 161.697C79.2896 161.697 80.2262 161.959 80.8293 162.291C80.8293 162.291 81.0062 162.406 81.0711 162.234C81.1067 162.143 81.4121 161.322 81.4439 161.233C81.4783 161.137 81.4172 161.066 81.3549 161.027C80.6665 160.61 79.7146 160.324 78.7298 160.324L78.5465 160.325C76.8694 160.325 75.6987 161.336 75.6987 162.786V162.816C75.6987 164.344 76.9903 164.84 78.2004 165.185L78.3951 165.245C79.2769 165.515 80.0366 165.748 80.0366 166.368V166.398C80.0366 166.965 79.5429 167.387 78.7463 167.387C78.4371 167.387 77.4509 167.38 76.3859 166.708C76.2573 166.633 76.1823 166.579 76.083 166.519C76.0308 166.486 75.8998 166.429 75.8425 166.602L75.4811 167.603Z" fill="white"/>
<path d="M102.305 167.603C102.249 167.749 102.326 167.779 102.344 167.805C102.511 167.926 102.682 168.014 102.854 168.112C103.765 168.595 104.625 168.736 105.525 168.736C107.357 168.736 108.495 167.763 108.495 166.196V166.166C108.495 164.718 107.211 164.192 106.006 163.812L105.849 163.761C104.941 163.466 104.157 163.212 104.157 162.615V162.584C104.157 162.073 104.615 161.697 105.325 161.697C106.114 161.697 107.05 161.959 107.654 162.291C107.654 162.291 107.83 162.406 107.895 162.234C107.931 162.143 108.236 161.322 108.268 161.233C108.303 161.137 108.241 161.066 108.179 161.027C107.491 160.61 106.539 160.324 105.554 160.324L105.371 160.325C103.694 160.325 102.523 161.336 102.523 162.786V162.816C102.523 164.344 103.815 164.84 105.025 165.185L105.219 165.245C106.101 165.515 106.862 165.748 106.862 166.368V166.398C106.862 166.965 106.367 167.387 105.571 167.387C105.261 167.387 104.275 167.38 103.21 166.708C103.082 166.633 103.005 166.581 102.908 166.519C102.875 166.497 102.72 166.438 102.667 166.602L102.305 167.603Z" fill="white"/>
<path d="M120.618 164.535C120.618 165.42 120.453 166.117 120.127 166.61C119.805 167.098 119.318 167.336 118.638 167.336C117.958 167.336 117.473 167.099 117.156 166.61C116.835 166.119 116.672 165.42 116.672 164.535C116.672 163.65 116.835 162.954 117.156 162.467C117.473 161.984 117.958 161.749 118.638 161.749C119.318 161.749 119.805 161.984 120.128 162.467C120.453 162.954 120.618 163.65 120.618 164.535ZM122.148 162.893C121.998 162.386 121.764 161.939 121.452 161.567C121.14 161.194 120.746 160.894 120.277 160.675C119.81 160.458 119.258 160.348 118.638 160.348C118.017 160.348 117.465 160.458 116.998 160.675C116.53 160.894 116.135 161.194 115.822 161.567C115.512 161.941 115.278 162.388 115.126 162.893C114.977 163.398 114.902 163.949 114.902 164.535C114.902 165.12 114.977 165.673 115.126 166.176C115.278 166.681 115.511 167.129 115.824 167.502C116.135 167.875 116.531 168.174 116.998 168.386C117.466 168.598 118.017 168.706 118.638 168.706C119.258 168.706 119.809 168.598 120.277 168.386C120.744 168.174 121.14 167.875 121.452 167.502C121.764 167.13 121.998 166.683 122.148 166.176C122.298 165.671 122.373 165.119 122.373 164.535C122.373 163.95 122.298 163.398 122.148 162.893Z" fill="white"/>
<path d="M134.709 167.099C134.658 166.951 134.514 167.006 134.514 167.006C134.291 167.092 134.055 167.17 133.803 167.21C133.547 167.249 133.266 167.269 132.964 167.269C132.224 167.269 131.636 167.05 131.214 166.615C130.792 166.181 130.555 165.478 130.558 164.528C130.56 163.663 130.769 163.013 131.144 162.517C131.517 162.024 132.085 161.772 132.842 161.772C133.473 161.772 133.954 161.844 134.458 162.003C134.458 162.003 134.579 162.055 134.636 161.897C134.77 161.526 134.869 161.261 135.011 160.853C135.052 160.737 134.953 160.688 134.917 160.674C134.719 160.596 134.251 160.471 133.897 160.417C133.566 160.367 133.179 160.34 132.749 160.34C132.106 160.34 131.534 160.449 131.044 160.668C130.555 160.885 130.14 161.185 129.812 161.558C129.484 161.932 129.234 162.379 129.068 162.884C128.902 163.389 128.818 163.942 128.818 164.528C128.818 165.795 129.161 166.818 129.836 167.568C130.513 168.32 131.53 168.702 132.856 168.702C133.64 168.702 134.444 168.543 135.022 168.316C135.022 168.316 135.132 168.263 135.084 168.134L134.709 167.099Z" fill="white"/>
<path d="M137.386 163.686C137.458 163.195 137.594 162.786 137.804 162.467C138.121 161.983 138.605 161.717 139.284 161.717C139.964 161.717 140.413 161.984 140.735 162.467C140.949 162.786 141.041 163.213 141.078 163.686H137.386ZM142.535 162.605C142.406 162.116 142.084 161.622 141.872 161.396C141.539 161.038 141.213 160.788 140.89 160.648C140.468 160.467 139.961 160.348 139.406 160.348C138.76 160.348 138.173 160.456 137.697 160.68C137.22 160.903 136.819 161.208 136.505 161.588C136.191 161.966 135.954 162.417 135.804 162.929C135.653 163.439 135.576 163.994 135.576 164.579C135.576 165.175 135.655 165.73 135.812 166.23C135.969 166.733 136.221 167.176 136.562 167.543C136.902 167.913 137.34 168.202 137.864 168.404C138.385 168.605 139.017 168.709 139.744 168.708C141.239 168.703 142.026 168.37 142.351 168.191C142.408 168.159 142.463 168.103 142.394 167.943L142.056 166.997C142.005 166.856 141.861 166.908 141.861 166.908C141.491 167.045 140.964 167.291 139.736 167.289C138.933 167.288 138.337 167.051 137.965 166.682C137.582 166.303 137.395 165.747 137.361 164.962L142.539 164.967C142.539 164.967 142.675 164.964 142.689 164.832C142.694 164.776 142.867 163.77 142.535 162.605Z" fill="white"/>
<path d="M95.9188 163.686C95.9926 163.195 96.1275 162.786 96.3375 162.467C96.6543 161.983 97.1379 161.717 97.8174 161.717C98.4969 161.717 98.9461 161.984 99.2693 162.467C99.4818 162.786 99.5747 163.213 99.6116 163.686H95.9188ZM101.067 162.605C100.937 162.116 100.617 161.622 100.406 161.396C100.072 161.038 99.7464 160.788 99.4232 160.648C99.0008 160.467 98.4943 160.348 97.9395 160.348C97.2944 160.348 96.7065 160.456 96.2306 160.68C95.7534 160.903 95.3526 161.208 95.0383 161.588C94.724 161.966 94.4873 162.417 94.3371 162.929C94.187 163.439 94.1094 163.994 94.1094 164.579C94.1094 165.175 94.1883 165.73 94.3448 166.23C94.5026 166.733 94.7545 167.176 95.0955 167.543C95.4353 167.913 95.873 168.202 96.3973 168.404C96.9177 168.605 97.5501 168.709 98.2767 168.708C99.7719 168.703 100.56 168.37 100.884 168.191C100.941 168.159 100.996 168.103 100.927 167.943L100.59 166.997C100.538 166.856 100.394 166.908 100.394 166.908C100.024 167.045 99.4983 167.291 98.2678 167.289C97.4662 167.288 96.8706 167.051 96.4978 166.682C96.1148 166.303 95.9277 165.747 95.8947 164.962L101.072 164.967C101.072 164.967 101.209 164.964 101.223 164.832C101.228 164.776 101.401 163.77 101.067 162.605Z" fill="white"/>
<path d="M84.7271 167.071C84.5248 166.909 84.4968 166.869 84.4281 166.765C84.3263 166.606 84.2741 166.38 84.2741 166.093C84.2741 165.638 84.4243 165.311 84.736 165.092C84.7322 165.093 85.1814 164.704 86.2375 164.718C86.9794 164.728 87.6423 164.838 87.6423 164.838V167.188H87.6436C87.6436 167.188 86.9857 167.329 86.2452 167.373C85.1916 167.437 84.7233 167.07 84.7271 167.071ZM86.7872 163.439C86.5773 163.424 86.305 163.415 85.9792 163.415C85.5351 163.415 85.1063 163.471 84.7042 163.579C84.2995 163.687 83.9356 163.856 83.6226 164.079C83.3083 164.304 83.0551 164.591 82.8718 164.932C82.6886 165.272 82.5957 165.673 82.5957 166.123C82.5957 166.58 82.6746 166.978 82.8324 167.303C82.9902 167.63 83.2179 167.902 83.5081 168.111C83.7956 168.321 84.1507 168.475 84.563 168.567C84.9689 168.66 85.4295 168.707 85.9334 168.707C86.464 168.707 86.9934 168.664 87.5062 168.576C88.0139 168.49 88.6374 168.364 88.8105 168.325C88.9823 168.284 89.1731 168.232 89.1731 168.232C89.3017 168.2 89.2915 168.063 89.2915 168.063L89.2889 163.336C89.2889 162.3 89.0115 161.531 88.4656 161.055C87.9223 160.58 87.1219 160.339 86.0874 160.339C85.6993 160.339 85.0745 160.393 84.7004 160.468C84.7004 160.468 83.5691 160.686 83.1034 161.05C83.1034 161.05 83.0016 161.113 83.0576 161.255L83.4241 162.239C83.4699 162.366 83.5933 162.322 83.5933 162.322C83.5933 162.322 83.6328 162.307 83.6786 162.281C84.6749 161.739 85.9347 161.756 85.9347 161.756C86.4946 161.756 86.9247 161.868 87.2148 162.09C87.4973 162.306 87.6411 162.632 87.6411 163.321V163.539C87.1957 163.476 86.7872 163.439 86.7872 163.439Z" fill="white"/>
<path d="M128.548 160.776C128.588 160.659 128.505 160.603 128.471 160.59C128.383 160.556 127.943 160.463 127.603 160.442C126.953 160.402 126.591 160.511 126.268 160.656C125.947 160.801 125.591 161.035 125.393 161.3V160.672C125.393 160.584 125.33 160.514 125.244 160.514H123.916C123.83 160.514 123.768 160.584 123.768 160.672V168.381C123.768 168.467 123.839 168.539 123.925 168.539H125.286C125.372 168.539 125.442 168.467 125.442 168.381V164.529C125.442 164.012 125.499 163.497 125.614 163.173C125.726 162.853 125.879 162.596 126.067 162.412C126.257 162.229 126.472 162.101 126.707 162.028C126.947 161.955 127.213 161.93 127.402 161.93C127.673 161.93 127.971 162 127.971 162C128.07 162.012 128.126 161.951 128.159 161.861C128.248 161.624 128.5 160.917 128.548 160.776Z" fill="white"/>
<path d="M115.78 157.203C115.615 157.152 115.464 157.118 115.269 157.081C115.07 157.045 114.833 157.027 114.565 157.027C113.628 157.027 112.89 157.292 112.372 157.812C111.857 158.331 111.507 159.12 111.331 160.157L111.268 160.507H110.092C110.092 160.507 109.95 160.502 109.919 160.657L109.727 161.733C109.713 161.834 109.757 161.899 109.895 161.899H111.039L109.878 168.367C109.788 168.888 109.684 169.316 109.568 169.641C109.455 169.962 109.344 170.202 109.206 170.377C109.074 170.545 108.949 170.669 108.733 170.741C108.555 170.801 108.349 170.829 108.124 170.829C107.999 170.829 107.832 170.809 107.709 170.783C107.587 170.759 107.522 170.733 107.429 170.693C107.429 170.693 107.295 170.642 107.242 170.776C107.2 170.886 106.894 171.723 106.857 171.826C106.822 171.929 106.873 172.009 106.938 172.033C107.09 172.087 107.204 172.122 107.411 172.172C107.699 172.239 107.942 172.243 108.169 172.243C108.645 172.243 109.08 172.176 109.441 172.046C109.802 171.915 110.118 171.688 110.397 171.38C110.699 171.048 110.889 170.7 111.069 170.223C111.249 169.753 111.403 169.169 111.525 168.488L112.692 161.899H114.397C114.397 161.899 114.541 161.904 114.57 161.748L114.763 160.673C114.776 160.57 114.733 160.507 114.594 160.507H112.939C112.948 160.47 113.023 159.888 113.212 159.341C113.294 159.108 113.446 158.919 113.575 158.789C113.702 158.662 113.848 158.572 114.009 158.52C114.173 158.467 114.36 158.441 114.565 158.441C114.72 158.441 114.874 158.459 114.99 158.483C115.15 158.517 115.213 158.535 115.254 158.548C115.424 158.599 115.447 158.549 115.48 158.468L115.875 157.383C115.916 157.266 115.816 157.217 115.78 157.203Z" fill="white"/>
<path d="M92.65 168.381C92.65 168.468 92.5876 168.538 92.5011 168.538H91.1281C91.0415 168.538 90.9805 168.468 90.9805 168.381V157.35C90.9805 157.264 91.0415 157.194 91.1281 157.194H92.5011C92.5876 157.194 92.65 157.264 92.65 157.35V168.381Z" fill="white"/>
</g>
<rect x="244.002" y="1" width="213" height="94" rx="3" fill="white" stroke="#151417" stroke-width="2"/>
<g clip-path="url(#clip1)">
<path d="M305.707 34.6649H309.709V38.8343H305.707V34.6649Z" fill="#525254"/>
<path d="M375.771 34.6649H379.773V38.8343H375.771V34.6649Z" fill="#525254"/>
<path d="M296.861 40.3304C294.339 40.3304 292.88 41.4499 292.177 42.2234C292.093 41.557 291.649 40.6925 289.914 40.6925H286.148V44.5913H287.692C287.953 44.5913 288.037 44.6736 288.037 44.9317V62.7342H292.526V56.0524C292.526 55.8721 292.523 55.7036 292.518 55.5527C293.219 56.1897 294.558 57.0668 296.65 57.0668C301.038 57.0668 304.105 53.6266 304.105 48.6993C304.105 43.694 301.193 40.3304 296.861 40.3304ZM295.949 53.1992C293.533 53.1992 292.435 50.9106 292.435 48.7901C292.435 45.4501 294.282 44.2597 296.009 44.2597C298.128 44.2597 299.554 46.0669 299.554 48.7588C299.554 51.8285 297.742 53.1992 295.949 53.1992Z" fill="#231F1F"/>
<path d="M310.014 52.4963V43.0631C310.014 41.4682 309.237 40.6925 307.645 40.6925H303.635V44.5913H305.18C305.44 44.5913 305.524 44.6736 305.524 44.9313V54.3333C305.524 55.9506 306.277 56.7035 307.888 56.7035H311.904V52.8386H310.359C310.11 52.8386 310.014 52.7407 310.014 52.4963Z" fill="#231F1F"/>
<path d="M321.74 40.3304C319.217 40.3304 317.76 41.4499 317.053 42.2234C316.97 41.557 316.528 40.6925 314.794 40.6925H311.025V44.5913H312.57C312.831 44.5913 312.915 44.6736 312.915 44.9317V62.7342H317.406V56.0524C317.406 55.8721 317.401 55.7036 317.395 55.5527C318.094 56.1897 319.437 57.0668 321.528 57.0668C325.916 57.0668 328.982 53.6266 328.982 48.6993C328.982 43.694 326.072 40.3304 321.74 40.3304ZM320.824 53.1992C318.414 53.1992 317.312 50.9106 317.312 48.7901C317.312 45.4501 319.159 44.2597 320.888 44.2597C323.007 44.2597 324.431 46.0669 324.431 48.7588C324.431 51.8285 322.622 53.1992 320.824 53.1992Z" fill="#231F1F"/>
<path d="M337.258 40.3304C332.422 40.3304 329.041 43.7725 329.041 48.6993C329.041 53.5465 332.69 57.0668 337.717 57.0668C341.672 57.0668 344.089 54.7511 344.191 54.6531L344.371 54.477L342.416 51.267L342.126 51.5392C342.107 51.5529 340.333 53.1703 337.989 53.1703C335.74 53.1703 334.093 51.8125 333.705 49.682H344.349L344.374 49.3912C344.381 49.3512 344.47 48.4062 344.47 47.9446C344.47 43.3909 341.572 40.3304 337.258 40.3304ZM333.872 46.3882C334.359 44.8169 335.576 43.9265 337.258 43.9265C338.609 43.9265 339.651 44.9431 339.833 46.3882H333.872Z" fill="#231F1F"/>
<path d="M360.796 52.4964V37.0351C360.796 35.4413 360.008 34.6649 358.396 34.6649H354.384V38.5636H355.929C356.189 38.5636 356.275 38.6467 356.275 38.9048V41.6997C355.612 41.1077 354.318 40.3304 352.091 40.3304C347.735 40.3304 344.695 43.7725 344.695 48.6994C344.695 53.7047 347.608 57.0668 351.939 57.0668C354.416 57.0668 355.843 55.9293 356.54 55.1376C356.631 55.8287 357.083 56.7035 358.763 56.7035H362.652V52.8391H361.14C360.891 52.8391 360.796 52.7407 360.796 52.4964ZM352.791 53.1993C350.656 53.1993 349.275 51.4325 349.275 48.6994C349.275 46.0429 350.712 44.2597 352.852 44.2597C355.278 44.2597 356.366 46.4725 356.366 48.6704C356.366 52.0111 354.518 53.1993 352.791 53.1993Z" fill="#231F1F"/>
<path d="M372.662 40.4807C370.794 40.4807 369.074 41.5472 368.055 43.2465V42.8806C368.055 41.4298 367.245 40.6922 365.656 40.6922H361.797V44.5914H363.34C363.6 44.5914 363.686 44.6733 363.686 44.9318V56.704H368.174V50.2958C368.174 49.4519 368.283 48.6392 368.495 47.8886C369.17 45.6789 370.966 44.8921 372.418 44.8921C372.933 44.8921 373.309 44.9463 373.314 44.9478L373.689 45.0038V40.5904L373.416 40.5447C373.402 40.542 373.022 40.4807 372.662 40.4807Z" fill="#231F1F"/>
<path d="M380.078 52.4963V43.0631C380.078 41.4682 379.306 40.6925 377.713 40.6925H374.084V44.5913H375.244C375.506 44.5913 375.589 44.6736 375.589 44.9313V54.3333C375.589 55.9506 376.342 56.7035 377.957 56.7035H381.969V52.8386H380.424C380.175 52.8386 380.078 52.7407 380.078 52.4963Z" fill="#231F1F"/>
<path d="M396.945 44.5913V40.6925H394.55C393.151 40.6925 392.4 41.172 391.957 42.351L389.031 50.4349C388.93 50.7349 388.835 51.0707 388.754 51.3932C388.669 51.0692 388.568 50.7291 388.457 50.4288L385.531 42.3484C385.082 41.1572 384.357 40.6925 382.938 40.6925H380.393V44.5913H381.054C381.403 44.5913 381.516 44.7087 381.6 44.9256L386.129 56.7035H391.176L395.706 44.9256C395.789 44.7087 395.905 44.5913 396.256 44.5913H396.945Z" fill="#231F1F"/>
<path d="M411.372 49.3912C411.375 49.3512 411.466 48.4062 411.466 47.9446C411.466 43.3909 408.567 40.3304 404.252 40.3304C399.416 40.3304 396.037 43.7725 396.037 48.6993C396.037 53.5465 399.682 57.0668 404.711 57.0668C408.666 57.0668 411.084 54.7511 411.185 54.6531L411.367 54.477L409.416 51.267L409.119 51.5392C409.104 51.5529 407.32 53.1703 404.985 53.1703C402.734 53.1703 401.087 51.8125 400.698 49.682H411.345L411.372 49.3912ZM400.866 46.3882C401.357 44.8169 402.571 43.9265 404.252 43.9265C405.607 43.9265 406.644 44.9431 406.828 46.3882H400.866Z" fill="#231F1F"/>
<path d="M372.664 40.4807C371.213 40.4807 369.862 41.1298 368.848 42.2101C369.704 42.2025 370.567 42.1956 371.429 42.1956C372.187 42.1956 372.938 42.2025 373.691 42.207V40.5904L373.418 40.5447C373.404 40.542 373.024 40.4807 372.664 40.4807Z" fill="#3B3B3C"/>
<path d="M391.958 42.351L391.773 42.8649C393.509 42.9831 395.231 43.1134 396.946 43.259V40.6925H394.551C393.152 40.6925 392.401 41.172 391.958 42.351Z" fill="#3B3B3C"/>
<path d="M296.861 40.3304C294.339 40.3304 292.88 41.4499 292.177 42.223C292.093 41.557 291.649 40.6925 289.914 40.6925H286.148V44.5913H287.692C287.953 44.5913 288.037 44.6736 288.037 44.9313V54.8521C290.1 54.1423 292.214 53.4581 294.368 52.8001C293.049 52.0534 292.435 50.3754 292.435 48.7897C292.435 45.4501 294.282 44.2597 296.009 44.2597C298.128 44.2597 299.554 46.0669 299.554 48.7588C299.554 49.8894 299.305 50.786 298.905 51.4713C300.582 51.0017 302.282 50.5462 304.008 50.1078C304.064 49.6531 304.105 49.185 304.105 48.6993C304.105 43.694 301.193 40.3304 296.861 40.3304Z" fill="#3B3B3C"/>
<path d="M307.645 40.6925H303.635V44.5913H305.18C305.44 44.5913 305.523 44.6736 305.523 44.9317V49.7339C307.003 49.3695 308.498 49.0157 310.014 48.6749V43.0631C310.014 41.4686 309.237 40.6925 307.645 40.6925Z" fill="#3B3B3C"/>
<path d="M305.707 34.6649H309.709V38.8343H305.707V34.6649Z" fill="#3B3B3C"/>
<path d="M321.742 40.3304C319.219 40.3304 317.762 41.4499 317.055 42.223C316.971 41.557 316.529 40.6925 314.795 40.6925H311.027V44.5913H312.572C312.832 44.5913 312.917 44.6736 312.917 44.9313V48.0414C314.435 47.7231 315.973 47.4144 317.521 47.1174C318.036 45.0567 319.493 44.2597 320.889 44.2597C322.153 44.2597 323.16 44.9115 323.775 46.0009C325.324 45.7455 326.884 45.4993 328.457 45.2664C327.434 42.2176 324.986 40.3304 321.742 40.3304Z" fill="#3B3B3C"/>
<path d="M337.258 40.3304C333.724 40.3304 330.976 42.1704 329.748 45.0819C331.656 44.8101 333.584 44.5562 335.528 44.3206C336.026 44.0641 336.605 43.9269 337.258 43.9269C337.505 43.9269 337.735 43.9726 337.957 44.0355C339.722 43.8381 341.502 43.6562 343.297 43.4897C342.063 41.5094 339.933 40.3304 337.258 40.3304Z" fill="#3B3B3C"/>
<path d="M358.394 34.6649H354.382V38.5636H355.927C356.186 38.5636 356.272 38.6467 356.272 38.9048V41.6997C355.61 41.1077 354.316 40.3304 352.089 40.3304C349.651 40.3304 347.626 41.4088 346.314 43.2248C351.058 42.8299 355.888 42.5467 360.794 42.3763V37.0351C360.794 35.4413 360.006 34.6649 358.394 34.6649Z" fill="#3B3B3C"/>
<path d="M365.657 40.6925H361.797V42.3484C363.845 42.284 365.902 42.2378 367.977 42.2146C367.75 41.2079 366.977 40.6925 365.657 40.6925Z" fill="#3B3B3C"/>
<path d="M375.771 34.6649H379.773V38.8343H375.771V34.6649Z" fill="#3B3B3C"/>
<path d="M377.715 40.6925H374.086V42.2096C376.068 42.2272 378.041 42.263 380.003 42.316C379.78 41.2315 379.032 40.6925 377.715 40.6925Z" fill="#3B3B3C"/>
<path d="M382.938 40.6925H380.393V42.3278C382.135 42.3789 383.868 42.4418 385.59 42.5195L385.531 42.3484C385.082 41.1572 384.357 40.6925 382.938 40.6925Z" fill="#3B3B3C"/>
<path d="M404.252 40.3304C401.495 40.3304 399.215 41.4522 397.76 43.3273C399.868 43.5102 401.963 43.7157 404.035 43.9417C404.354 43.9764 404.667 44.0085 404.981 44.0447C406.981 44.2684 408.959 44.5143 410.919 44.7788C409.892 42.0305 407.465 40.3304 404.252 40.3304Z" fill="#3B3B3C"/>
</g>
<rect x="122.002" y="237" width="213" height="94" rx="3" fill="white" stroke="#151417" stroke-width="2"/>
<g clip-path="url(#clip2)">
<path d="M169.127 273.285H173.264V282.668H181.989V273.285H186.131V296.318H181.989V286.738H173.264V296.318H169.127V273.285Z" fill="#45535E"/>
<path d="M199.238 288.816C199.238 290.744 197.699 292.313 195.811 292.313C193.922 292.313 192.384 290.744 192.384 288.816V278.899H188.461V288.816C188.461 292.953 191.758 296.318 195.811 296.318C199.863 296.318 203.16 292.953 203.16 288.816V278.899H199.238V288.816Z" fill="#45535E"/>
<path d="M214.111 279.015C212.165 279.015 210.807 279.592 209.495 280.907V273.285H205.559V287.41C205.559 292.697 209.303 296.318 213.51 296.318C218.186 296.318 222.284 292.633 222.284 287.667C222.284 282.764 218.506 279.015 214.111 279.015ZM214.209 292.601C211.542 292.601 209.502 290.327 209.502 287.667C209.502 285.007 211.542 282.732 214.209 282.732C216.469 282.732 218.509 285.007 218.509 287.667C218.509 290.327 216.469 292.601 214.209 292.601Z" fill="#45535E"/>
<path d="M228.896 280.028C228.896 278.008 230.214 277.367 231.657 277.367C232.819 277.367 234.357 278.264 235.36 279.354L237.933 276.278C236.647 274.516 234.043 273.298 231.909 273.298C227.64 273.298 224.564 275.83 224.564 280.028C224.564 287.814 233.949 285.346 233.949 289.704C233.949 291.049 232.662 292.235 231.188 292.235C228.864 292.235 228.111 291.082 227.044 289.864L224.188 292.875C226.009 295.151 228.268 296.305 230.967 296.305C235.016 296.305 238.28 293.741 238.28 289.735C238.28 281.084 228.896 283.776 228.896 280.028Z" fill="#45535E"/>
<path d="M248.641 278.79C244.434 278.79 240.689 282.408 240.689 287.697V301.858H244.625V294.2C245.937 295.514 247.295 296.092 249.242 296.092C253.636 296.092 257.415 292.343 257.415 287.441C257.415 282.474 253.316 278.79 248.641 278.79ZM249.34 292.375C246.673 292.375 244.633 290.098 244.633 287.441C244.633 284.78 246.673 282.506 249.34 282.506C251.599 282.506 253.64 284.78 253.64 287.441C253.64 290.098 251.599 292.375 249.34 292.375Z" fill="#45535E"/>
<path d="M286.389 292.601C284.068 292.601 283.409 291.576 283.409 290.005V283.052H287.017V279.528H283.409V274.882L279.424 276.708V290.87C279.424 294.492 281.871 296.318 285.228 296.318C285.73 296.318 286.421 296.285 286.798 296.19L287.771 292.538C287.332 292.569 286.83 292.601 286.389 292.601Z" fill="#45535E"/>
<path d="M276.009 283.257C275.254 281.932 274.193 280.869 272.866 280.07C271.875 279.48 270.846 279.106 269.688 278.946V274.734C270.846 274.232 271.565 273.12 271.565 271.823C271.565 270.056 270.177 268.623 268.447 268.623C266.715 268.623 265.302 270.056 265.302 271.823C265.302 273.12 265.98 274.232 267.139 274.734V278.947C266.212 279.084 265.25 279.379 264.373 279.833C262.58 278.442 256.7 273.882 253.261 271.218C253.343 270.918 253.406 270.608 253.406 270.282C253.406 268.324 251.852 266.737 249.934 266.737C248.015 266.737 246.463 268.324 246.463 270.282C246.463 272.24 248.017 273.827 249.935 273.827C250.59 273.827 251.195 273.632 251.718 273.31L252.443 273.872L262.416 281.208C261.889 281.703 261.398 282.265 261.005 282.896C260.209 284.181 259.723 285.596 259.723 287.139V287.461C259.723 288.545 259.925 289.567 260.268 290.528C260.57 291.367 261.013 292.13 261.56 292.82L258.25 296.207C257.957 296.096 257.648 296.036 257.326 296.036C256.61 296.036 255.938 296.322 255.431 296.838C254.924 297.356 254.646 298.044 254.646 298.776C254.646 299.508 254.925 300.195 255.432 300.713C255.939 301.23 256.613 301.516 257.33 301.516C258.047 301.516 258.721 301.23 259.228 300.713C259.734 300.195 260.014 299.507 260.014 298.776C260.014 298.493 259.971 298.216 259.89 297.954L263.311 294.46C263.78 294.791 264.287 295.07 264.831 295.31C265.905 295.784 267.091 296.073 268.389 296.073H268.626C270.061 296.073 271.414 295.729 272.686 295.025C274.026 294.282 275.075 293.265 275.868 291.967C276.665 290.665 277.103 289.227 277.103 287.645V287.565C277.103 286.009 276.75 284.573 276.009 283.257ZM271.829 290.585C270.9 291.639 269.833 292.287 268.626 292.287H268.427C267.738 292.287 267.064 292.093 266.404 291.739C265.66 291.35 265.095 290.794 264.632 290.091C264.154 289.401 263.894 288.647 263.894 287.848V287.605C263.894 286.819 264.042 286.074 264.414 285.371C264.812 284.602 265.349 284.003 266.064 283.528C266.766 283.056 267.515 282.824 268.35 282.824H268.427C269.184 282.824 269.901 282.976 270.577 283.33C271.266 283.706 271.829 284.221 272.265 284.898C272.689 285.575 272.941 286.305 273.022 287.101C273.035 287.266 273.042 287.436 273.042 287.597C273.042 288.677 272.637 289.677 271.829 290.585Z" fill="#F8761F"/>
</g>
<rect x="237.002" y="119" width="98" height="94" rx="3" fill="white" stroke="#151417" stroke-width="2"/>
<g clip-path="url(#clip3)">
<path d="M255.09 138.123C255.09 136.503 256.403 135.19 258.023 135.19H313.202C314.821 135.19 316.134 136.503 316.134 138.123V193.302C316.134 194.921 314.821 196.234 313.202 196.234H258.023C256.403 196.234 255.09 194.921 255.09 193.302V138.123Z" fill="#4990E2"/>
<path d="M255.136 190.818C255.209 191.122 255.281 191.427 255.355 191.731C255.994 194.362 258.223 196.113 260.99 196.123C264.202 196.136 267.414 196.127 270.625 196.127C283.77 196.127 296.913 196.128 310.058 196.126C312.936 196.126 315.179 194.435 315.822 191.756C315.949 191.223 316.006 190.66 316.006 190.111C316.016 173.854 316.015 157.596 316.013 141.34C316.013 138.128 314.181 135.94 311.032 135.376C310.919 135.356 310.814 135.291 310.705 135.247C312.53 135.247 314.355 135.247 316.179 135.247C316.179 155.596 316.179 175.943 316.179 196.291C295.831 196.291 275.483 196.291 255.135 196.291C255.136 194.467 255.136 192.643 255.136 190.818Z" fill="white"/>
<path d="M260.489 135.247C260.147 135.332 259.805 135.414 259.464 135.502C257.213 136.079 255.618 137.858 255.28 140.157C255.258 140.309 255.185 140.454 255.135 140.603C255.135 138.818 255.135 137.033 255.135 135.248C256.92 135.247 258.704 135.247 260.489 135.247Z" fill="white"/>
<path d="M262.859 165.707C262.757 159.447 267.3 152.783 274.913 151.557C279.637 150.797 283.83 152.108 287.288 155.471C289.932 158.041 292.512 160.68 295.12 163.288C296.522 164.692 296.955 166.387 296.41 168.255C295.873 170.094 294.581 171.261 292.696 171.629C291.097 171.942 289.601 171.602 288.408 170.429C286.033 168.092 283.688 165.725 281.333 163.368C280.494 162.528 279.636 162.289 278.763 162.671C277.466 163.237 277.023 164.936 278.02 165.947C280.914 168.885 283.702 171.957 286.831 174.627C293.424 180.254 303.817 176.408 305.415 167.89C306.594 161.608 302.49 155.559 296.197 154.363C294.532 154.047 292.85 154.096 291.194 154.535C290.928 154.605 290.653 154.67 290.38 154.681C289.728 154.705 289.155 154.263 289.016 153.669C288.853 152.968 289.14 152.304 289.779 152.039C290.178 151.875 290.606 151.77 291.03 151.68C299.128 149.991 306.672 155.24 308.126 162.933C309.563 170.531 305.117 177.68 297.693 179.577C292.535 180.895 287.909 179.659 284.047 175.959C281.37 173.394 278.789 170.728 276.171 168.101C274.788 166.714 274.367 165.028 274.905 163.182C275.44 161.347 276.723 160.173 278.611 159.8C280.288 159.468 281.798 159.887 283.032 161.116C285.393 163.467 287.743 165.829 290.104 168.18C291.185 169.258 292.788 169.132 293.515 167.927C293.966 167.182 293.938 166.11 293.319 165.49C290.426 162.58 287.667 159.506 284.554 156.849C277.896 151.165 267.551 154.903 265.93 163.506C264.582 170.668 269.686 176.328 275.558 177.119C277.188 177.338 278.793 177.255 280.383 176.837C281.31 176.595 282.07 176.968 282.28 177.759C282.493 178.561 282.024 179.286 281.127 179.541C273.111 181.821 264.676 176.621 263.188 168.468C263.022 167.558 262.966 166.628 262.859 165.707Z" fill="white"/>
</g>
<rect x="358.002" y="119" width="98" height="94" rx="3" fill="white" stroke="#151417" stroke-width="2"/>
<path d="M405.465 148.624C411.92 148.624 421.672 150.593 426.212 155.107C427.362 156.251 428.867 158.493 428.867 161.777C428.867 167.614 424.137 176.57 418.915 181.765C416.215 184.45 411.92 187.959 406.142 187.959C400.494 187.959 396.181 184.144 394.933 182.902C390.149 178.145 386.723 170.925 386.723 164.193C386.723 159.945 387.94 156.229 391.047 153.141C393.925 150.28 398.883 148.624 405.465 148.624ZM413.454 171.904C415.633 169.736 416.22 167.066 416.22 165.597C416.22 164.531 415.939 162.969 414.599 161.637C412.543 159.593 410.267 159.016 407.791 159.016C404.654 159.016 402.547 160.002 401.143 161.399C400.043 162.493 399.091 164.176 399.091 166.567C399.091 168.956 400.372 171.265 401.768 172.652C403.058 173.935 405.085 174.884 407.126 174.884C409.167 174.884 411.275 174.072 413.454 171.904Z" fill="#5952FF"/>
<rect x="123.002" y="1" width="98" height="94" rx="3" fill="white" stroke="#151417" stroke-width="2"/>
<path fill-rule="evenodd" clip-rule="evenodd" d="M192.178 27.4524C185.543 27.7812 179.296 28.6181 173.348 31.0988C170.778 32.145 168.447 33.5497 166.384 35.4626C164.262 37.4353 163.694 39.8563 164.412 42.5761C165.308 46.1628 167.58 48.8528 170.449 51.0347C173.019 52.9774 174.604 55.4283 174.693 58.7161C174.783 62.3625 173.259 65.2318 170.18 67.1148C167.042 69.0576 163.754 69.0875 160.556 67.324C153.98 63.6477 150.513 57.9987 150.573 50.407C150.633 45.1167 152.815 40.723 156.64 37.1065C161.811 32.2047 168.118 29.6941 174.962 28.3491C180.163 27.3329 185.393 27.0938 190.684 27.2731C190.863 27.2731 191.042 27.303 191.252 27.303C191.461 27.303 191.7 27.3628 192.178 27.4524Z" fill="#1B72B1"/>
<path fill-rule="evenodd" clip-rule="evenodd" d="M176.995 67.2641C181.09 64.0361 182.435 59.762 181.777 54.7407C181.538 53.0072 180.642 51.5426 179.596 50.1976C178.46 48.7331 177.175 47.3881 175.919 46.0132C175.381 45.4453 174.903 44.8475 174.485 44.19C173.319 42.2472 173.409 40.424 174.784 38.6606C175.859 37.2558 177.324 36.3293 178.878 35.5223C179.356 35.2831 179.625 35.5521 179.954 35.7913C184.049 38.8399 186.59 42.845 187.367 47.8962C188.592 55.6374 184.916 63.1693 178.161 66.9652C177.802 67.1744 177.473 67.4434 176.995 67.2641Z" fill="#1B72B1"/>
<defs>
<clipPath id="clip0">
<rect width="89.4172" height="62.764" fill="white" transform="translate(62.498 135.19)"/>
</clipPath>
<clipPath id="clip1">
<rect width="125.528" height="28.3728" fill="white" transform="translate(286.041 34.5955)"/>
</clipPath>
<clipPath id="clip2">
<rect width="118.65" height="35.251" fill="white" transform="translate(169.113 266.736)"/>
</clipPath>
<clipPath id="clip3">
<path d="M255.09 138.123C255.09 136.503 256.403 135.19 258.023 135.19H313.202C314.821 135.19 316.134 136.503 316.134 138.123V193.302C316.134 194.921 314.821 196.234 313.202 196.234H258.023C256.403 196.234 255.09 194.921 255.09 193.302V138.123Z" fill="white"/>
</clipPath>
</defs>
</svg>
