<svg width="48" height="48" viewBox="0 0 48 48" fill="none" xmlns="http://www.w3.org/2000/svg">
<circle cx="24" cy="24" r="24" fill="#F6F6F6"/>
<path d="M21.1501 37.6035C20.4477 37.5675 21.6905 32.7761 21.6905 32.7761L26.5179 32.7401C26.5179 32.7401 28.2111 37.5314 27.5266 37.5314C26.8421 37.5314 21.8526 37.6395 21.1501 37.6035Z" fill="white"/>
<path d="M21.1501 37.6035C20.4477 37.5675 21.6905 32.7761 21.6905 32.7761L26.5179 32.7401C26.5179 32.7401 28.2111 37.5314 27.5266 37.5314M21.1501 37.6035C21.8526 37.6395 26.8421 37.5314 27.5266 37.5314M21.1501 37.6035L19.0967 37.5675M27.5266 37.5314H29.598" stroke="#151417" stroke-width="1.25" stroke-linecap="round"/>
<path d="M28.621 11.305L12.0899 11.233C10.1968 11.0312 9.52179 12.806 9.61741 13.6827C9.77278 18.6781 9.60422 28.579 9.61741 30.5784C9.62778 32.1507 10.5138 32.6079 11.1951 32.6679L16.5376 32.848C21.9876 32.812 33.4615 32.7616 35.7563 32.848C38.051 32.9345 38.6725 31.5391 38.6964 30.8306C38.7502 27.7881 38.9766 22.1798 39.0908 18.2031C39.129 16.8747 39.0549 15.6004 39.0908 14.8355C39.2343 11.7805 37.6208 11.2089 36.7961 11.305H28.621Z" fill="white"/>
<path d="M9.7967 28.2008C16.6093 28.3809 31.9197 28.6259 38.6606 28.1648M12.0899 11.233L28.621 11.305H36.7961C37.6207 11.2089 39.2343 11.7805 39.0908 14.8355C39.0549 15.6004 39.129 16.8747 39.0908 18.2031C38.9766 22.1798 38.7502 27.7881 38.6964 30.8306C38.6725 31.5391 38.051 32.9345 35.7563 32.848C33.4615 32.7616 21.9876 32.812 16.5376 32.848L11.1951 32.6679C10.5138 32.6079 9.62778 32.1507 9.61741 30.5784C9.60422 28.579 9.77278 18.6781 9.61741 13.6827C9.52179 12.806 10.1968 11.0312 12.0899 11.233Z" stroke="#151417" stroke-width="1.5"/>
<path d="M24.6269 30.6688C24.4918 30.9661 24.3816 31.2182 24.0234 31.2182C23.6653 31.2182 23.384 31.018 23.384 30.6598C23.384 30.1555 23.6653 30.0834 24.0234 30.0834C24.3816 30.0834 24.6269 30.3107 24.6269 30.6688Z" fill="#151417"/>
<path d="M21.15 37.6038C20.4475 37.5678 21.6904 32.7765 21.6904 32.7765L26.5178 32.7404C26.5178 32.7404 28.2109 37.5318 27.5265 37.5318C26.842 37.5318 21.8525 37.6399 21.15 37.6038Z" fill="white"/>
<path d="M21.15 37.6038C20.4475 37.5678 21.6904 32.7765 21.6904 32.7765L26.5178 32.7404C26.5178 32.7404 28.2109 37.5318 27.5265 37.5318M21.15 37.6038C21.8525 37.6399 26.842 37.5318 27.5265 37.5318M21.15 37.6038L19.0966 37.5678M27.5265 37.5318H29.5979" stroke="#151417" stroke-width="1.5" stroke-linecap="round"/>
<path d="M35.7559 32.8483C38.0506 32.9348 38.6721 31.5394 38.6961 30.8309L38.6602 28.1651C31.9193 28.6262 16.6089 28.3812 9.79632 28.2011L9.61703 30.5787C9.6274 32.151 10.5134 32.6082 11.1947 32.6682L16.5372 32.8483C21.9873 32.8123 33.4611 32.7619 35.7559 32.8483Z" fill="white" stroke="#151417" stroke-width="1.5"/>
<path d="M24.8913 30.5475C24.7164 30.9688 24.5738 31.3263 24.1102 31.3263C23.6467 31.3263 23.2826 31.0424 23.2826 30.5347C23.2826 29.8197 23.6467 29.7176 24.1102 29.7176C24.5738 29.7176 24.8913 30.0398 24.8913 30.5475Z" fill="#151417"/>
</svg>
