<svg width="48" height="48" viewBox="0 0 48 48" fill="none" xmlns="http://www.w3.org/2000/svg">
<circle cx="24" cy="24" r="24" fill="#F6F6F6"/>
<path d="M20.4 11.9998C20.4 9.75981 22 8.7998 23.6 8.7998C25.2 8.7998 27.6 10.0798 27.6 11.9998C27.6 14.3998 24.8 15.9998 23.6 15.9998C22.4 15.9998 20.4 14.7998 20.4 11.9998Z" fill="white" stroke="#151417" stroke-width="1.5"/>
<path d="M30.4 31.1999C30.4 28.9599 32 27.9999 33.6 27.9999C35.2 27.9999 37.6 29.2799 37.6 31.1999C37.6 33.5999 34.8 35.1999 33.6 35.1999C32.4 35.1999 30.4 33.9999 30.4 31.1999Z" fill="white" stroke="#151417" stroke-width="1.5"/>
<path d="M9.59991 31.9999C9.59991 29.7599 11.1999 28.7999 12.7999 28.7999C14.3999 28.7999 16.7999 30.0799 16.7999 31.9999C16.7999 34.3999 13.9999 35.9999 12.7999 35.9999C11.5999 35.9999 9.59991 34.7999 9.59991 31.9999Z" fill="white" stroke="#151417" stroke-width="1.5"/>
<path d="M19.6 19.2C20 18.3999 23.2 14.7999 28.4 18.8" stroke="#151417" stroke-width="1.5" stroke-linecap="round" stroke-linejoin="round"/>
<path d="M29.6 38.4C30 37.6 33.2 34 38.4 38" stroke="#151417" stroke-width="1.5" stroke-linecap="round" stroke-linejoin="round"/>
<path d="M8.79999 39.2C9.19999 38.4 12.4 34.8 17.6 38.8" stroke="#151417" stroke-width="1.5" stroke-linecap="round" stroke-linejoin="round"/>
<path d="M30.7997 15.5998C32.3997 16.7998 35.4397 20.3998 34.7997 25.1998M16.7997 15.1998C15.1997 16.2664 12.1597 19.8398 12.7997 25.5998M19.2 33.9998C20.5333 34.7998 24.32 35.9198 28.8 33.9998" stroke="#151417" stroke-width="1.5" stroke-linecap="round" stroke-linejoin="round"/>
<path d="M25.6 27.8585C24.9788 28.4449 24.1357 28.7235 23.6 28.8C23.519 28.8101 23.4319 28.8173 23.34 28.8209C22.6874 28.8461 21.7954 28.6869 21.1656 28.0799C20.716 27.6467 20.4 26.9853 20.4 26C20.4 24.9306 20.7723 24.1962 21.2836 23.7036C21.9963 23.017 22.9789 22.8 23.6 22.8C24.0504 22.8 24.8812 23.0536 25.5213 23.7036C26.0181 24.208 26.4 24.9513 26.4 26C26.4 26.818 26.0612 27.4231 25.6 27.8585Z" fill="white"/>
<path d="M23.6 22.8C24.0504 22.8 24.8812 23.0536 25.5213 23.7036M23.6 22.8V20.8M23.6 22.8C22.9789 22.8 21.9963 23.017 21.2836 23.7036M20.4 26C20.4 24.9306 20.7723 24.1962 21.2836 23.7036M20.4 26H18.4M20.4 26C20.4 26.9853 20.716 27.6467 21.1656 28.0799M26.4 26C26.4 26.818 26.0612 27.4231 25.6 27.8585M26.4 26H28.4M26.4 26C26.4 24.9513 26.0181 24.208 25.5213 23.7036M25.6 27.8585C24.9788 28.4449 24.1357 28.7235 23.6 28.8C23.519 28.8101 23.4319 28.8173 23.34 28.8209M25.6 27.8585L27.2 29.6M25.5213 23.7036L27.2 22M21.2836 23.7036L19.6 22.4M21.1656 28.0799L20 29.6M21.1656 28.0799C21.7954 28.6869 22.6874 28.8461 23.34 28.8209M23.34 28.8209V30.8" stroke="#151417" stroke-width="1.5" stroke-linecap="round" stroke-linejoin="round"/>
</svg>
