<svg width="16" height="16" fill="none" xmlns="http://www.w3.org/2000/svg"><path d="M15.546 4.293a.333.333 0 00-.133-.58l-.527-.133a.334.334 0 01-.22-.467l.294-.593a.334.334 0 00-.387-.467l-1.333.374a.333.333 0 01-.294-.054A3.333 3.333 0 007.613 5.04v.24a.167.167 0 01-.147.167c-1.873.22-3.666-.734-5.6-2.96a.34.34 0 00-.34-.1.333.333 0 00-.193.28 5.053 5.053 0 00.307 3.28.167.167 0 01-.174.24L.72 6.04a.333.333 0 00-.38.393 3.433 3.433 0 001.58 2.52.167.167 0 010 .3l-.354.14a.333.333 0 00-.173.46 2.907 2.907 0 002.133 1.654.167.167 0 010 .313 7.292 7.292 0 01-2.86.553.34.34 0 10-.133.667 13.372 13.372 0 005.427 1.287 8.386 8.386 0 004.666-1.334 8.335 8.335 0 003.707-6.953v-.58a.334.334 0 01.12-.253l1.093-.914z" fill="#151417"/></svg>