<?xml version="1.0" encoding="UTF-8"?> <svg xmlns="http://www.w3.org/2000/svg" width="116" height="45" viewBox="0 0 116 45" fill="none"><path d="M75.8033 30.9885C77.3123 31.0225 78.7734 30.4545 79.8681 29.4085L81.8833 31.5984C80.5524 32.9762 78.7067 34 75.8378 34C70.9192 34 67.7396 30.7136 67.7396 26.2706C67.7197 25.2523 67.9037 24.2404 68.2806 23.2953C68.6576 22.3501 69.2198 21.4911 69.9337 20.7694C70.6476 20.0478 71.4985 19.4783 72.4358 19.0949C73.3731 18.7115 74.3774 18.5222 75.389 18.5381C80.273 18.5381 83.0415 22.2795 82.7967 27.4683H71.252C71.66 29.6234 73.1667 30.998 75.7939 30.998L75.8033 30.9885ZM79.3094 24.994C78.9955 22.981 77.8028 21.499 75.4172 21.499C73.1981 21.499 71.6506 22.763 71.252 24.994H79.3125H79.3094ZM0 30.821L8.88295 21.7328H0.210303V18.8825H13.0043V21.7897L4.12131 30.8748H13.1298V33.7282H0V30.821ZM23.102 30.9854C24.6109 31.0193 26.072 30.4514 27.1668 29.4053L29.1819 31.5952C27.851 32.973 26.0054 33.9968 23.1365 33.9968C18.2179 33.9968 15.0382 30.7104 15.0382 26.2675C15.0183 25.2492 15.2023 24.2373 15.5793 23.2921C15.9562 22.347 16.5184 21.4879 17.2323 20.7663C17.9462 20.0446 18.7972 19.4751 19.7344 19.0918C20.6717 18.7084 21.6761 18.519 22.6876 18.5349C27.5717 18.5349 30.3402 22.2764 30.0953 27.4651H18.5569C18.9649 29.6202 20.4716 30.9948 23.0988 30.9948L23.102 30.9854ZM26.6143 24.9908C26.3004 22.9779 25.1077 21.4958 22.7222 21.4958C20.503 21.4958 18.9555 22.7598 18.5569 24.9908H26.6175H26.6143ZM49.2863 26.2643C49.2863 21.5243 52.8112 18.5412 56.694 18.5412C57.6256 18.5287 58.5487 18.7217 59.3984 19.1066C60.2481 19.4914 61.0038 20.0589 61.6125 20.769V12.0095H64.7514V33.6872H61.6125V31.6426C61.0155 32.382 60.2609 32.9766 59.4045 33.3825C58.5482 33.7884 57.6122 33.9951 56.6657 33.9874C52.8991 33.9874 49.2894 30.9854 49.2894 26.2675L49.2863 26.2643ZM61.7883 26.2359C61.7636 25.309 61.468 24.4101 60.9385 23.6515C60.409 22.8929 59.6691 22.3083 58.8113 21.9709C57.9535 21.6334 57.0159 21.5581 56.1158 21.7543C55.2157 21.9505 54.3931 22.4095 53.7507 23.0739C53.1084 23.7384 52.6749 24.5787 52.5045 25.4899C52.3341 26.4011 52.4344 27.3426 52.7927 28.1967C53.151 29.0508 53.7515 29.7796 54.5191 30.2919C55.2867 30.8042 56.1873 31.0773 57.1083 31.077C59.8077 31.077 61.7852 28.9092 61.7852 26.2359H61.7883ZM84.8495 30.5335L87.6933 29.0483C88.0692 29.723 88.6211 30.2816 89.2894 30.6636C89.9576 31.0456 90.7168 31.2367 91.485 31.216C93.2616 31.216 94.1844 30.2996 94.1844 29.2568C94.1844 28.0687 92.4675 27.8032 90.5999 27.4145C88.0888 26.8773 85.4741 26.0463 85.4741 22.9905C85.4741 20.6426 87.6933 18.4717 91.1868 18.5033C93.9396 18.5033 95.9893 19.603 97.1506 21.3789L94.514 22.8325C94.1498 22.2894 93.6539 21.8488 93.0733 21.5524C92.4928 21.256 91.8467 21.1136 91.1962 21.1388C89.5075 21.1388 88.6475 21.9698 88.6475 22.921C88.6475 23.9891 90.0097 24.2861 92.1442 24.7633C94.5736 25.3005 97.3233 26.1 97.3233 29.1873C97.3233 31.235 95.5467 33.9968 91.3406 33.9684C88.2645 33.9684 86.0987 32.7202 84.8526 30.524L84.8495 30.5335ZM105.852 27.0891L103.362 29.8225V33.6777H100.224V12H103.362V26.1979L110.026 18.8351H113.849L108.074 25.1867L114 33.6808H110.447L105.855 27.0891H105.852ZM39.8007 18.5381C36.0654 18.5381 32.9423 20.9713 32.9423 25.0161V33.6903H36.1439V25.4174C36.1439 22.9842 37.5344 21.5243 39.9105 21.5243C42.2866 21.5243 43.4668 22.9779 43.4668 25.4174V33.6903H46.6496V25.0161C46.6496 20.9776 43.5108 18.5381 39.7912 18.5381" fill="#151417"></path></svg> 